<svg xmlns="http://www.w3.org/2000/svg" xmlns:xlink="http://www.w3.org/1999/xlink" viewBox="0 0 244.22 222.45"><defs><style>.cls-1{opacity:0.3;}.cls-2{fill:#b0b0b0;}.cls-3{fill:#fff;}.cls-4{fill:#ab2f3a;}.cls-5{fill:#eaeaea;}.cls-6{fill:none;stroke:#0c0c0c;stroke-miterlimit:10;}.cls-7{fill:#231f20;}.cls-8{fill:#c7c6c5;}.cls-9{fill:url(#New_Gradient_Swatch_1);}.cls-10{fill:#f7e5e3;}.cls-11{fill:#010101;}.cls-12{fill:#484848;}.cls-13{fill:#a8303e;}</style><linearGradient id="New_Gradient_Swatch_1" x1="52.25" y1="61.15" x2="42.74" y2="92.73" gradientUnits="userSpaceOnUse"><stop offset="0" stop-color="#e5b8b1"/><stop offset="1" stop-color="#f7e5e3"/></linearGradient></defs><title>01</title><g id="Layer_2" data-name="Layer 2"><g id="Layer_1-2" data-name="Layer 1"><g class="cls-1"><rect class="cls-2" x="119.49" y="105.3" width="124.73" height="55.14"/><rect class="cls-3" x="124.97" y="111.52" width="56.06" height="43.42"/><rect class="cls-2" x="141.03" y="119.26" width="24.78" height="4.71"/><rect class="cls-3" x="183.07" y="111.52" width="56.06" height="43.42"/><rect class="cls-2" x="199.13" y="119.26" width="24.78" height="4.71"/><path class="cls-4" d="M219,68.85l-.87-3.72a.81.81,0,0,1,1.42-.69l2.7,3.33Z"/><path class="cls-5" d="M217,66.79,221.89,65a.45.45,0,0,1,.61.42v7.35a.85.85,0,0,1-1.54.5l-4.18-5.75A.45.45,0,0,1,217,66.79Z"/><path class="cls-6" d="M222,73.58s1.42,3,2.11,10"/><path class="cls-4" d="M229.41,64.13l.87-3.72a.81.81,0,0,0-1.42-.69L226.16,63Z"/><path class="cls-5" d="M230.84,62.53l-4.91-1.84a.45.45,0,0,0-.61.42v7.35a.85.85,0,0,0,1.54.5L231,63.22A.45.45,0,0,0,230.84,62.53Z"/><path class="cls-6" d="M225.8,69.32s-1,5.39-1.67,12.39"/><path class="cls-4" d="M227,88.86c-2-2.42-.39-9.36-.39-9.36h-5.46s1.64,6.94-.39,9.36-5.07,3.2-5.15,16.45h16.53C232.1,92.05,229.05,91.27,227,88.86Z"/></g><g class="cls-1"><rect class="cls-7" x="141.28" y="7.33" width="1.11" height="42.66"/><rect class="cls-8" x="121.36" y="65.2" width="41.58" height="5.53"/><rect class="cls-8" x="133.47" y="71.54" width="17.37" height="5.51"/><path class="cls-7" d="M145.37,54.78a17.68,17.68,0,0,1,2.21-4.15H136.73a17.68,17.68,0,0,1,2.21,4.15c1,3.63-2.21,8.43-2.21,8.43h10.84S144.41,58.41,145.37,54.78Z"/></g><path class="cls-9" d="M38.72,25.44,0,105.72v28l66.32,9.69S64,91.06,77.68,61.8C89.65,36.23,38.72,25.44,38.72,25.44Z"/><polygon class="cls-10" points="147.8 134.9 152.06 153.91 123.55 201.43 171.3 222.45 183.07 172.97 195.78 119.55 147.8 134.9"/><path class="cls-10" d="M88.45,52.53C81.38,69.2,64.58,78,50.92,72.22S29.75,44.78,34,34.69C41.11,18,62.89,6.07,76.54,11.86S95.52,35.86,88.45,52.53Z"/><path class="cls-10" d="M91.18,32.6l2,24.86-7.62-3.23A29.86,29.86,0,0,1,91.18,32.6Z"/><path class="cls-11" d="M69.23,40.71l7.41-17,14,6L97.48,21a1.48,1.48,0,0,0-.59-2.28L53.7.37a4.69,4.69,0,0,0-6.15,2.48L34,34.69Z"/><path class="cls-10" d="M72.6,33s-3.49-2.5-6.37-.18c-3.17,2.55-3.41,10.77,1.38,13.44Z"/><path class="cls-12" d="M139.89,127.58l28.54-52.18a3.83,3.83,0,0,1,3.74-2l27.47,2.75a3.83,3.83,0,0,1,3.08,5.44L176,139.93a3.83,3.83,0,0,1-4.57,2l-29.28-8.87A3.83,3.83,0,0,1,139.89,127.58Z"/><path class="cls-12" d="M143,129.4l-2.71,2.47a7,7,0,0,1-2.12-5.11Z"/><path class="cls-12" d="M199,73.9s5.24,1.17,3.88,7.21l-6.38-2.63Z"/><path class="cls-11" d="M138.66,125.17,167.19,73a3.83,3.83,0,0,1,3.74-2l27.47,2.75a3.83,3.83,0,0,1,3.08,5.44l-26.73,58.29a3.83,3.83,0,0,1-4.57,2l-29.28-8.87A3.83,3.83,0,0,1,138.66,125.17Z"/><polygon class="cls-3" points="167.11 75.93 199.04 79.91 174.96 131.87 141.47 122.5 167.11 75.93"/><path class="cls-13" d="M166.58,97.22l-.19.29L163.71,97l-.15.24.18,0a.87.87,0,0,1,.41.18.29.29,0,0,1,.07.29.73.73,0,0,1-.13.27l-2.4,3.69-1.32-.28q-.31-.06-.36-.25a.33.33,0,0,1,0-.15v0a1.45,1.45,0,0,1,.24-.43l2.5-3.78-2.25-.47.19-.29,5.88,1.23Zm.81-.33-.7-.15-5.88-1.23-.35-.07-.19.29-.19.29-.38.58.7.15,1.54.32-2.11,3.19a1.77,1.77,0,0,0-.31.59v0a.8.8,0,0,0,0,.36v0a.88.88,0,0,0,.74.58l1.32.28.35.07.19-.29,2.4-3.68a1.2,1.2,0,0,0,.2-.44.9.9,0,0,0,0-.13l1.53.32.35.07.19-.29.19-.29Z"/><path class="cls-13" d="M166.32,99.28l-.33.54a.34.34,0,0,0,.45-.2c.13-.21.13-.29-.12-.35Z"/><path class="cls-13" d="M180.57,102.27c-.16,0-.24.06-.55.56s-.34.6-.19.63.23,0,.54-.56.35-.6.19-.63Z"/><path class="cls-13" d="M172.3,100.53c-.16,0-.24.06-.55.56s-.34.6-.19.63.23,0,.54-.56.35-.6.19-.63Z"/><path class="cls-13" d="M167.48,97.7l-.53.8L165,98.09a.79.79,0,0,1,0,.19,1.13,1.13,0,0,1-.2.42l-1.86,2.82,19.41,4.07,2.67-4.21Zm-3.32,2.84,1.14-1.85.5.11-1.14,1.85Zm2.08.44-.5-.11c.07-.19.37-.53.27-.73l-.18,0-.43.7-.5-.11L166,98.85l.5.11c.59.12.69.34.45.73a.76.76,0,0,1-.46.4c.16.22-.22.67-.28.89Zm1.46-.1-.22.36-1-.22,1.14-1.85,1,.22-.22.36-.55-.11-.22.36.39.08-.22.36-.39-.08-.25.4Zm.54.55c-.54-.11-.48-.42-.24-.8l.55.12c-.1.17-.19.3-.09.32s.13,0,.19-.15c.21-.34-.52-.45-.18-1a.76.76,0,0,1,1-.4c.46.1.47.39.24.77l-.55-.12c.14-.23.16-.28.08-.3s-.12,0-.21.16c-.2.33.53.46.2,1a.75.75,0,0,1-1,.39Zm1.7.32.45-.72L170,101l-.45.72-.5-.11,1.14-1.85.5.11-.47.76.34.07.47-.76.5.11-1.14,1.85Zm1.42.33c-.68-.14-.57-.41-.15-1.11s.64-.95,1.32-.8.56.44.14,1.11-.63.94-1.31.8Zm1.65.35c-.58-.12-.65-.28-.21-1l.63-1,.51.11-.63,1c-.25.41-.28.52-.09.56s.28-.06.53-.47l.63-1,.51.11-.63,1c-.44.72-.67.82-1.25.7Zm1.56.33c-.54-.11-.48-.42-.24-.8l.55.12c-.1.17-.19.3-.09.32s.13,0,.19-.15c.21-.34-.52-.45-.18-1a.76.76,0,0,1,1-.4c.46.1.47.39.24.77l-.55-.12c.14-.23.16-.28.08-.3s-.12,0-.21.16c-.2.33.53.46.2,1a.75.75,0,0,1-1,.39Zm2.13,0-.22.36-1-.22,1.14-1.85,1,.22-.22.36-.55-.11-.22.36.39.08-.22.36-.39-.08-.25.4Zm.46.5-.42-.09.21-.34.42.09Zm.89.22c-.67-.14-.62-.39-.18-1.11s.69-.93,1.35-.8c.49.1.53.41.3.79l-.55-.12c.1-.17.14-.29,0-.32s-.24.06-.55.56-.34.6-.18.63.24-.08.35-.25l.55.12a1,1,0,0,1-1.09.5Zm1.58.33c-.68-.14-.57-.41-.15-1.11s.64-.95,1.32-.8.56.44.14,1.11-.63.94-1.31.8Zm2.61.51-.5-.11.51-.83-.68.8-.31-.07.34-.87-.51.83-.5-.11,1.14-1.85.53.11-.3,1,.89-.91.53.11Z"/><path class="cls-10" d="M194.91,115.5,182.12,103c-1.07-1-3.42-1-4.46,1.93a8.46,8.46,0,0,0,1.15,8.12C182,117,183,118.34,183,118.34s-4.38,21.26,2.13,28.56l10.6-27.35A3.76,3.76,0,0,0,194.91,115.5Z"/><path class="cls-4" d="M0,222.45H171.3c-14-59.23-60.75-102.93-130.6-102.93-7.54,0-23.56-.06-40.71-.12Z"/></g></g></svg>