<svg xmlns="http://www.w3.org/2000/svg" xmlns:xlink="http://www.w3.org/1999/xlink" viewBox="0 0 192.68 186.39"><defs><style>.cls-1{opacity:0.3;}.cls-14,.cls-2{fill:#0c0c0c;}.cls-3{fill:#6d6e6e;}.cls-4{fill:#ab2f3a;}.cls-5{fill:#d8d9d8;}.cls-6{fill:#b0b0b0;}.cls-7{fill:#fff;}.cls-8{fill:#010101;}.cls-9{fill:#575757;}.cls-10{fill:#f7e5e3;}.cls-11{fill:#231f20;}.cls-12{fill:url(#New_Gradient_Swatch_1);}.cls-13{fill:#7d7d7d;}.cls-13,.cls-14{opacity:0.33;}</style><linearGradient id="New_Gradient_Swatch_1" x1="134.04" y1="57.44" x2="134.04" y2="62.79" gradientUnits="userSpaceOnUse"><stop offset="0" stop-color="#e5b8b1"/><stop offset="1" stop-color="#f7e5e3"/></linearGradient></defs><title>02_1</title><g id="Layer_2" data-name="Layer 2"><g id="pic_02" data-name="pic 02"><g class="cls-1"><rect class="cls-2" x="19.02" y="55.01" width="1.73" height="96.31"/><rect class="cls-2" x="12.05" y="148.88" width="15.69" height="2.44"/><rect class="cls-3" x="23.41" y="57.92" width="1.13" height="24.82"/><polygon class="cls-4" points="31.23 27.97 19.89 27.97 8.55 27.97 0 60.48 19.89 60.48 39.78 60.48 31.23 27.97"/></g><path class="cls-5" d="M45.69,64.24h117.1a10.1,10.1,0,0,1,10.1,10.1v55a0,0,0,0,1,0,0H35.59a0,0,0,0,1,0,0v-55A10.1,10.1,0,0,1,45.69,64.24Z"/><rect class="cls-6" x="35.59" y="129.34" width="137.3" height="26.83"/><path class="cls-5" d="M15.85,102.52H35.59a0,0,0,0,1,0,0v53.65a0,0,0,0,1,0,0H24.41a8.56,8.56,0,0,1-8.56-8.56V102.52A0,0,0,0,1,15.85,102.52Z"/><polygon class="cls-7" points="35.59 87.55 49.61 87.55 35.59 102.52 15.85 102.52 35.59 87.55"/><polygon class="cls-6" points="35.59 129.34 49.61 110.33 49.61 87.55 35.59 102.52 35.59 129.34"/><polygon class="cls-6" points="172.94 129.34 158.93 110.33 158.93 87.55 172.94 102.52 172.94 129.34"/><path class="cls-5" d="M181.51,102.52h11.18a0,0,0,0,1,0,0v53.65a0,0,0,0,1,0,0H172.94a0,0,0,0,1,0,0V111.08a8.56,8.56,0,0,1,8.56-8.56Z" transform="translate(365.62 258.69) rotate(-180)"/><polygon class="cls-7" points="172.94 87.55 158.93 87.55 172.94 102.52 192.68 102.52 172.94 87.55"/><polygon class="cls-7" points="158.93 110.33 49.61 110.33 35.59 129.34 172.89 129.34 158.93 110.33"/><polygon class="cls-8" points="35.59 156.17 32.57 156.17 34.22 170.26 35.59 170.26 36.97 170.26 38.61 156.17 35.59 156.17"/><polygon class="cls-8" points="172.79 156.17 169.77 156.17 171.41 170.26 172.79 170.26 174.16 170.26 175.8 156.17 172.79 156.17"/><path class="cls-4" d="M56.31,91.64A152.13,152.13,0,0,1,84.57,86.3a3,3,0,0,1,3,1.68,106,106,0,0,1,8.1,26.56,3,3,0,0,1-1.78,3.22,85.72,85.72,0,0,1-30.34,6.15,3,3,0,0,1-2.92-2.17c-1.27-4.62-4.26-15.85-6.33-26.73A3,3,0,0,1,56.31,91.64Z"/><path class="cls-9" d="M164.94,89.44a156.34,156.34,0,0,0-22.43-4.15,6.47,6.47,0,0,0-6.66,3.91,107.78,107.78,0,0,0-6.44,21.08,6.47,6.47,0,0,0,4.16,7.33A87.34,87.34,0,0,0,158,122.5a6.48,6.48,0,0,0,6.63-4.79c1.3-4.86,3.3-12.69,4.94-20.72A6.47,6.47,0,0,0,164.94,89.44Z"/><polygon class="cls-10" points="94.46 171.06 96.55 182.17 99.99 182.17 99.99 168.29 94.46 171.06"/><path class="cls-4" d="M145.6,65,139,62.51h-8.91l-10.36,3.81c-6.71,2.56-8.65,8.06-10,16.46l-6.47,33.48h34.95l12.9-41.09C151.91,68,152.3,67.59,145.6,65Z"/><path class="cls-11" d="M100.5,186.39H79.55s3.76-5.89,8.59-5.8c7,.13,6.89-2.64,6.89-2.64h5.47Z"/><path class="cls-4" d="M108,101.64l25.16-20.23-4.42-5.95L105,91.85s-3.52,2.57-3.49,6.75A4,4,0,0,0,108,101.64Z"/><path class="cls-8" d="M130.85,68.12l1.44,8.52a.92.92,0,0,0,1,.83l4.17-.64a1,1,0,0,0,.77-1.22l-1.36-8.84a.92.92,0,0,0-1.06-.84l-4.25,1A1,1,0,0,0,130.85,68.12Z"/><path class="cls-10" d="M130.09,76.84,131.82,74a6.19,6.19,0,0,1,2.3-2.19h0a4.88,4.88,0,0,1,2.07-.59l.64,0,.22.65-1.46.14L134,73l.82-.37a4.88,4.88,0,0,1,1.89-.44h.54l.06.66-1.25.11-1.44.89.71-.27a4.88,4.88,0,0,1,1.25-.3l.93-.1.11.57-1.42.26-1,.62.38-.13a4.88,4.88,0,0,1,1.44-.27l.43,0,.08.48-1,.19-.93.49-.28.65a4.49,4.49,0,0,1-1.49,1.85l-2.23,1.61Z"/><path class="cls-4" d="M121.34,65.73s-16.57,3.52-19.8,32.49l12.58-8.56,5.26-17.42Z"/><path class="cls-11" d="M150.39,120.51l-12.2-4.24-17.47-.05-17.47.05L87.4,132.4s-3,3.43-1.16,10.47c2.28,8.74,6.94,28.89,6.94,28.89H101l-2.1-30.64a4.37,4.37,0,0,1,1.5-3.6l10.24-9.07a15.35,15.35,0,0,1,10.06-3.76h0a15.35,15.35,0,0,1,10.06,3.76"/><path class="cls-4" d="M151.44,76.49"/><polygon class="cls-10" points="97.17 132.53 85.88 131.63 85.52 128.2 99.34 126.73 97.17 132.53"/><path class="cls-11" d="M81.68,126.69l-1.07,20.86s6.09-3.45,6.25-8.29c.23-7,3-6.75,3-6.75l.28-5.38Z"/><path class="cls-11" d="M97,123.89l-.56,12s37.84-.82,52.69-.8c9.32,0,10.82-14.84-1.57-14.92C138.89,120.14,97,123.89,97,123.89Z"/><path class="cls-4" d="M139,62.51s23.34,7.32,39.4,24.24l-12.21,2.64S148.71,78.61,144.12,76.1C140.25,74,137.54,66.09,139,62.51Z"/><path class="cls-12" d="M134,55.59h-3.93s.1,8.42-1.6,10.21c0,0,1.2,2.15,5.46,2.15,4.68,0,5.61-2.15,5.61-2.15-1.88-2-1.6-10.21-1.6-10.21Z"/><ellipse class="cls-10" cx="134.04" cy="54.38" rx="4.34" ry="5.66"/><path class="cls-10" d="M130.09,54.06s-.57-.94-1.1-.5-.06,1.92.77,2Z"/><path class="cls-10" d="M138,54.06s.57-.94,1.1-.5.06,1.92-.77,2Z"/><path class="cls-8" d="M134,48.39h-3.66a.9.9,0,0,0-.9.95l.29,6.26.83-2.15v-2h6.89v2l.83,2.15.29-6.26a.9.9,0,0,0-.9-.95Z"/><path class="cls-8" d="M133.71,57a.07.07,0,0,1,0-.14,3.08,3.08,0,0,0,1.81-.74.07.07,0,0,1,.1.1,3.17,3.17,0,0,1-1.91.79Z"/><path class="cls-8" d="M134.35,55.54H133v-.06c-.08-.76.85-1.89,1-2.06v-.63a.07.07,0,0,1,.14,0v.68l0,0s-1,1.16-1,1.91h1.24a.07.07,0,1,1,0,.14Z"/><path class="cls-10" d="M154.54,99.8l-3.32,3.46-1.92,3a5.3,5.3,0,0,0-.84,2.59l0,.89a2,2,0,0,0,.15.86l.49,1.2.63-.21-.45-1.25.22-1.82,0,1.49a2,2,0,0,0,.17.77l.46,1,.62-.23-.44-1.18.18-1.68.09,1.14a2,2,0,0,0,.11.51l.44,1.24.56-.15-.38-1.39.14-1.14.09.84a2,2,0,0,0,.15.58l.35.8.47-.14-.27-1v-1.16l0,0a3.78,3.78,0,0,0,1.32-2.3l.07-.44,3.5-2.85Z"/><circle class="cls-5" cx="131.57" cy="68.56" r="0.28"/><g class="cls-1"><rect class="cls-13" x="48.06" y="18.78" width="35.06" height="22.23" transform="translate(35.69 95.49) rotate(-90)"/><rect class="cls-7" x="49.76" y="20.6" width="31.67" height="18.59" transform="translate(35.69 95.49) rotate(-90)"/></g><g class="cls-1"><rect class="cls-14" x="77.14" y="4.4" width="29.9" height="21.1" transform="translate(77.14 107.04) rotate(-90)"/><rect class="cls-7" x="78.59" y="6.13" width="27.01" height="17.64" transform="translate(77.14 107.04) rotate(-90)"/></g><path class="cls-4" d="M178.23,89.67l-22.41,16.23-4.13-5.14s10.44-9.27,13.77-12.09c5.65-4.79,8.45-5.93,12.94-1.92A1.88,1.88,0,0,1,178.23,89.67Z"/></g></g></svg>