<svg xmlns="http://www.w3.org/2000/svg" xmlns:xlink="http://www.w3.org/1999/xlink" viewBox="0 0 236.31 206.46"><defs><style>.cls-1{fill:#878787;}.cls-2{opacity:0.3;}.cls-3{fill:#ccc;}.cls-18,.cls-4{fill:none;}.cls-4{stroke:#231f20;stroke-miterlimit:10;stroke-width:0.75px;}.cls-5{fill:#fff;}.cls-6{fill:#8c8c8c;}.cls-7{fill:#e9e8e8;}.cls-8{fill:#898989;}.cls-9{fill:#d2d2d2;}.cls-10{fill:#7d7d7d;}.cls-11{fill:#c2c1c1;}.cls-12{fill:#aeaeae;}.cls-13{fill:#d7d6d6;}.cls-14{fill:#dcdbdb;}.cls-15{fill:#ab2f3a;}.cls-16{fill:#010101;}.cls-17{fill:#717171;}.cls-19{fill:#030303;}.cls-20{fill:#575757;}.cls-21{fill:#f7e5e3;}.cls-22{fill:#231f20;}.cls-23{fill:url(#New_Gradient_Swatch_1);}</style><linearGradient id="New_Gradient_Swatch_1" x1="193.6" y1="144.17" x2="195.91" y2="145.85" gradientUnits="userSpaceOnUse"><stop offset="0" stop-color="#e5b8b1"/><stop offset="1" stop-color="#f7e5e3"/></linearGradient></defs><title>03</title><g id="Layer_2" data-name="Layer 2"><g id="Layer_1-2" data-name="Layer 1"><polygon class="cls-1" points="135.81 194.4 135.81 196.28 133.4 196.28 133.4 188.93 133.36 188.93 132.7 187.49 132.7 183.79 128.56 183.79 128.56 187.49 127.9 188.93 127.86 188.93 127.86 196.28 126.52 196.28 126.52 198.16 127.86 198.16 133.4 198.16 135.81 198.16 136.84 198.16 136.84 196.28 136.84 194.4 135.81 194.4"/><g class="cls-2"><polygon class="cls-3" points="80.9 0 0 15.22 0 26.96 0.88 26.96 156.34 26.96 156.34 17.57 80.9 0"/><path class="cls-4" d="M92.46,143.1"/><rect class="cls-5" x="3.29" y="26.96" width="143.2" height="136.32"/><rect class="cls-3" x="49.72" y="126.61" width="96.77" height="36.67"/><path class="cls-6" d="M24.43,76V40.81s9.17-7.66,20.12,0V76Z"/><rect class="cls-7" x="26.75" y="43.25" width="15.48" height="14.03"/><rect class="cls-7" x="26.75" y="59.86" width="15.48" height="15.48"/><rect class="cls-6" x="22.03" y="74.82" width="24.93" height="2.49"/><path class="cls-6" d="M64.24,76V40.81s9.17-7.66,20.12,0V76Z"/><rect class="cls-7" x="66.56" y="43.25" width="15.48" height="14.03"/><rect class="cls-7" x="66.56" y="59.86" width="15.48" height="15.48"/><rect class="cls-6" x="61.83" y="74.82" width="24.93" height="2.49"/><path class="cls-6" d="M104,76V40.81s9.17-7.66,20.12,0V76Z"/><rect class="cls-7" x="106.37" y="43.25" width="15.48" height="14.03"/><rect class="cls-7" x="106.37" y="59.86" width="15.48" height="15.48"/><rect class="cls-6" x="101.64" y="74.82" width="24.93" height="2.49"/><rect class="cls-8" x="8.43" y="93.58" width="41.29" height="56.62"/><rect class="cls-8" x="6.76" y="87.71" width="46" height="5.87"/><rect class="cls-9" x="11.44" y="95.84" width="36.23" height="54.36"/><rect class="cls-8" x="29.55" y="95.84" width="1.73" height="54.36"/><rect class="cls-8" x="25.2" y="127.58" width="1.73" height="4.26"/><rect class="cls-8" x="33.31" y="127.58" width="1.73" height="4.26"/><rect class="cls-8" x="3.29" y="126.1" width="5.14" height="39.46"/><rect class="cls-8" x="49.72" y="123.15" width="96.77" height="3.46"/><rect class="cls-8" x="49.72" y="126.1" width="6.07" height="35.99"/><rect class="cls-5" x="146.5" y="78.95" width="72.87" height="83.62"/><rect class="cls-10" x="144.73" y="72.33" width="84.96" height="6.62"/><rect class="cls-10" x="144.73" y="117.45" width="84.96" height="45.12"/><rect class="cls-6" x="159.33" y="85.35" width="20.66" height="26.77"/><rect class="cls-11" x="161.53" y="87.16" width="16.07" height="16.07"/><rect class="cls-6" x="190.42" y="85.35" width="20.66" height="26.77"/><rect class="cls-12" x="159.33" y="128.34" width="20.66" height="26.77"/><rect class="cls-13" x="161.53" y="129.95" width="16.26" height="16.26"/><rect class="cls-12" x="190.42" y="128.34" width="20.66" height="26.77"/><rect class="cls-14" x="83.11" y="98.18" width="1" height="24.3"/><rect class="cls-14" x="111.88" y="90.61" width="0.88" height="58.42" transform="translate(-7.5 232.14) rotate(-90)"/><rect class="cls-14" x="111.88" y="68.86" width="0.88" height="58.42" transform="translate(14.25 210.39) rotate(-90)"/><rect class="cls-14" x="87.53" y="98.18" width="1" height="21.64"/><rect class="cls-14" x="91.95" y="98.18" width="1" height="21.64"/><rect class="cls-14" x="96.36" y="98.18" width="1" height="21.64"/><rect class="cls-14" x="100.78" y="98.18" width="1" height="21.64"/><rect class="cls-14" x="105.2" y="98.18" width="1" height="21.64"/><rect class="cls-14" x="109.61" y="98.18" width="1" height="21.64"/><rect class="cls-14" x="114.03" y="98.18" width="1" height="21.64"/><rect class="cls-14" x="118.45" y="98.18" width="1" height="21.64"/><rect class="cls-14" x="122.86" y="98.18" width="1" height="21.64"/><rect class="cls-14" x="127.28" y="98.18" width="1" height="21.64"/><rect class="cls-14" x="131.7" y="98.18" width="1" height="21.64"/><rect class="cls-14" x="136.11" y="98.18" width="1" height="21.64"/><rect class="cls-14" x="140.53" y="98.18" width="1" height="24.3"/><rect class="cls-11" x="193.19" y="87.16" width="16.07" height="16.07"/><rect class="cls-13" x="192.62" y="129.95" width="16.26" height="16.26"/></g><path class="cls-15" d="M60.42,151.94s-27.12,2-34,7.36c0,0-6.42,5.92-7.29,12.12s0,8.95,0,8.95l-.7.37v1.8a9.19,9.19,0,0,0,4.93,2.33c2.61.14,12,.21,12,.21s-3.68-14,10.08-18.89c5.46-1.94,17.78-.67,19.34,12.74a25.26,25.26,0,0,1-.67,7.44h77s-3.56-16.92,12.24-20.73c4.94-1.19,13,.08,16.38,9a21.48,21.48,0,0,1,.52,9s17.68-2.1,18.32-2.1,4.7-2.11,3.65-4-.73-9.81-.73-9.81l-4.13-4.38a12.73,12.73,0,0,0,.49-7.13,7.68,7.68,0,0,0-2.19-5.19s1.3-.16,1.95-2.76a39.18,39.18,0,0,0-11.33-.77c-5.46.59-5.39,1.18-5.39,1.18l-25.55-11.45s-3.93-2.16-14.54-2.15c-11.34,0-23.95.53-32.4.79-3.79.12-7.32.59-15,4.59C74.87,145,60.42,151.94,60.42,151.94Z"/><path class="cls-16" d="M64,154.23s20.63-11.7,22.75-12.78c2.55-1.29,6.84-4,25.44-4s25.13.87,27,1.59c1.45.56,6.55,4,11.77,12.54,0,0-76,4.11-81.63,4.24C65.74,155.87,64,155.8,64,154.23Z"/><path class="cls-17" d="M109.66,139.9l-1.75,11.37-36.45,2.1c-.69.1-.63-.53,0-1.07,1.33-1.11,17.12-9.42,18.49-10.06C91.78,141.4,96.71,139.39,109.66,139.9Z"/><path class="cls-17" d="M115.23,151.55l.66-11.93s14.43,0,19.16.74c4.34.71,5.73,1.82,8.49,4.66,3.34,3.44,3.89,5.09,3.89,5.09Z"/><polygon class="cls-18" points="157.84 153.19 158.12 159.31 166.34 159.31 166.34 153.19 157.84 153.19"/><path class="cls-16" d="M187.69,154.76a4.84,4.84,0,0,1-3,.78,32.55,32.55,0,0,0-5.46.47s-.65.93.56,2,2.19,2.66,4.86,2.8,3,2.13,3,2.13S189.69,158.4,187.69,154.76Z"/><path class="cls-16" d="M24.73,174.87s-2.34-.06-2.34,1.64v3.19h2.17Z"/><path class="cls-5" d="M23.56,167.53s2.2-2.44,8.92-2.6l5.43-4.16s-9.48-.14-10.77.51A6.14,6.14,0,0,0,23.56,167.53Z"/><path class="cls-15" d="M75,153V148.9H73.25a3.18,3.18,0,0,0-2.61,1.35c-.52.75-1.12,1.61-1.39,2.05s-1.06,2,.77,2h4.17C74.8,154.18,75,153.89,75,153Z"/><path class="cls-16" d="M108.76,157.79h-7.34c-.37,0-.74.17-.74.81a.72.72,0,0,0,.65.81h7.52a.72.72,0,0,0,.65-.81C109.5,158,109.13,157.79,108.76,157.79Z"/><path class="cls-16" d="M147.93,157.79H140.6c-.37,0-.74.17-.74.81a.72.72,0,0,0,.65.81H148a.72.72,0,0,0,.65-.81C148.67,158,148.3,157.79,147.93,157.79Z"/><path class="cls-1" d="M50.11,169.18a11.51,11.51,0,1,0,11.51,11.51A11.51,11.51,0,0,0,50.11,169.18Zm8.47,6.4a8.92,8.92,0,0,1,1.31,3l-6.2,1.59a2.65,2.65,0,0,0-.43-1.12Zm-4.82-4.21a10,10,0,0,1,4,2.73l-5,4.08a3.06,3.06,0,0,0-1.31-.82Zm-2.49-.64-.76,6.36a2.65,2.65,0,0,0-1.2,0L48,170.88A8.92,8.92,0,0,1,51.27,170.73Zm-5.59,1,2.63,5.88a3.06,3.06,0,0,0-1.14,1.05L42,174.81A10,10,0,0,1,45.68,171.7Zm-4.57,4.67,5.75,2.82a2.65,2.65,0,0,0-.4,1.13l-6.28-.84A8.92,8.92,0,0,1,41.11,176.37Zm.46,9.49a10,10,0,0,1-1.43-4.6l6.44-.12a3.06,3.06,0,0,0,.52,1.46Zm1.77,2.22,4.16-4.86a2.65,2.65,0,0,0,1,.67l-2.38,5.87A8.92,8.92,0,0,1,43.34,188.09Zm4.53,2.51,1.6-6.24a3.06,3.06,0,0,0,1.55-.11l1.67,6.21A10,10,0,0,1,47.87,190.6Zm7-1.07-3-5.64a2.65,2.65,0,0,0,1-.69l4.61,4.35A8.92,8.92,0,0,1,54.89,189.53Zm-1.48-7.31a3.06,3.06,0,0,0,.3-1.52l6.43,0A10,10,0,0,1,59,185.4Z"/><path class="cls-19" d="M50.11,164.93a15.76,15.76,0,1,0,15.76,15.76A15.76,15.76,0,0,0,50.11,164.93Zm0,27.26a11.51,11.51,0,1,1,11.51-11.51A11.51,11.51,0,0,1,50.11,192.19Z"/><circle class="cls-20" cx="51.21" cy="178.99" r="0.65"/><circle class="cls-20" cx="52.08" cy="181.34" r="0.65"/><circle class="cls-20" cx="48.72" cy="179.1" r="0.65"/><circle class="cls-20" cx="48.31" cy="181.59" r="0.65"/><circle class="cls-20" cx="50.3" cy="182.85" r="0.65"/><polygon class="cls-21" points="204.37 195 205.35 200.2 206.96 200.2 206.96 193.71 204.37 195"/><path class="cls-22" d="M207,202.17h-9.55s1.76-2.76,4-2.71c3.27.06,3.22-1.24,3.22-1.24H207Z"/><polygon class="cls-21" points="229.28 193.2 233.76 196.01 234.86 194.83 230.09 190.43 229.28 193.2"/><path class="cls-22" d="M236.31,196.18l-6.49,7s-.83-3.16.74-4.79c2.27-2.36,1.28-3.2,1.28-3.2l1.57-1.7Z"/><polygon class="cls-21" points="186.5 170.54 183.26 170.84 181.66 171.84 183.53 172.83 185.97 172.43 187.26 171.01 186.5 170.54"/><path class="cls-21" d="M199.76,162.52l-12.21,9.35-1-1.33,9.79-9.94,1.19-12.41c.23-2.76.54-3.54,1.35-3.7,2.91-.58,5.14,3.37,4.74,7.55C203.16,156.41,199.76,162.52,199.76,162.52Z"/><path class="cls-15" d="M195.94,158.14l8.1.78s1.37-11.62-2-11.4S196.61,148,195.94,158.14Z"/><path class="cls-23" d="M195.11,140.41l8.34,5.89-5.75,5.87s-1.18-5.23-4.74-7.76Z"/><ellipse class="cls-21" cx="193.4" cy="141.76" rx="2.12" ry="3" transform="translate(-36.62 74.01) rotate(-19.83)"/><polygon class="cls-21" points="191.21 140.59 191.19 144.44 192.19 143.8 191.21 140.59"/><path class="cls-15" d="M189.28,143.79l5.86-3.69s-1-2.39-3.19-1.28a2.38,2.38,0,0,0-1.12,3.22S188.86,143.12,189.28,143.79Z"/><path class="cls-15" d="M202.35,143.95l9.54,5.29,9.6,10.49-14.65,9a63.76,63.76,0,0,0-4.72-7.25C197.18,155.32,193.82,151.6,202.35,143.95Z"/><path class="cls-15" d="M207.85,166.38s-6.16,19.49-6,20,0,10.4,0,10.4h6l.06-9.54s16.14-19,10.82-28Z"/><path class="cls-15" d="M212.52,167.94s8.13,19.59,8.6,19.87,7.22,7.49,7.22,7.49l4.33-4.18-6.58-6.91s-1.56-24.89-11.65-27.69Z"/><path class="cls-21" d="M207.85,162.87l-14.7,11.54-1.38-1.48,9.45-11.48-.36-11.38c0-2.77.25-3.57,1-3.8,1.75-.51,5.51,1.91,6,3.94C208.88,155,207.85,162.87,207.85,162.87Z"/><path class="cls-15" d="M200.44,158.64l9.65.6s-1-11.39-4.26-12.31c-2.57-.73-5.14-3-6,2.75C199.57,151.41,200,154.52,200.44,158.64Z"/><path class="cls-1" d="M180.79,176.15a12.79,12.79,0,1,0,12.79,12.79A12.79,12.79,0,0,0,180.79,176.15Zm9.41,7.12a9.92,9.92,0,0,1,1.46,3.3l-6.9,1.77a2.94,2.94,0,0,0-.48-1.25Zm-5.36-4.68a11.15,11.15,0,0,1,4.41,3l-5.54,4.54a3.4,3.4,0,0,0-1.46-.92Zm-2.77-.71-.85,7.07a2.94,2.94,0,0,0-1.34,0l-1.42-6.9A9.92,9.92,0,0,1,182.08,177.88ZM175.86,179l2.92,6.54a3.41,3.41,0,0,0-1.27,1.17l-5.74-4.25A11.15,11.15,0,0,1,175.86,179Zm-5.08,5.19,6.39,3.13a2.94,2.94,0,0,0-.44,1.26l-7-.93A9.92,9.92,0,0,1,170.78,184.15Zm.51,10.55a11.15,11.15,0,0,1-1.59-5.12l7.16-.14a3.41,3.41,0,0,0,.58,1.62Zm2,2.47,4.63-5.41a2.94,2.94,0,0,0,1.11.74L176.35,199A9.92,9.92,0,0,1,173.26,197.17Zm5,2.79,1.78-6.94a3.41,3.41,0,0,0,1.72-.13l1.86,6.9A11.15,11.15,0,0,1,178.29,200Zm7.8-1.19-3.37-6.27a2.94,2.94,0,0,0,1.09-.77l5.13,4.83A9.92,9.92,0,0,1,186.1,198.78Zm-1.64-8.12a3.41,3.41,0,0,0,.33-1.69l7.14,0a11.15,11.15,0,0,1-1.25,5.21Z"/><path class="cls-19" d="M180.79,171.43a17.51,17.51,0,1,0,17.51,17.51A17.51,17.51,0,0,0,180.79,171.43Zm0,30.3a12.79,12.79,0,1,1,12.79-12.79A12.79,12.79,0,0,1,180.79,201.73Z"/><circle class="cls-20" cx="182.01" cy="187.06" r="0.72"/><circle class="cls-20" cx="182.97" cy="189.68" r="0.72"/><circle class="cls-20" cx="179.23" cy="187.19" r="0.72"/><circle class="cls-20" cx="178.78" cy="189.96" r="0.72"/><circle class="cls-20" cx="180.99" cy="191.36" r="0.72"/><polygon class="cls-21" points="187.55 171.87 186.36 172.51 184.19 172.83 183.95 172.08 187.21 170.84 187.55 171.87"/><polygon class="cls-21" points="191.77 172.93 189.52 172.5 186.68 173.52 186.68 174.42 187.09 175.44 191.6 175.89 193.15 174.42 191.77 172.93"/></g></g></svg>