<svg xmlns="http://www.w3.org/2000/svg" xmlns:xlink="http://www.w3.org/1999/xlink" viewBox="0 0 235.45 200.83"><defs><style>.cls-1{fill:none;}.cls-2{fill:#d8d9d8;opacity:0.25;}.cls-3{fill:#dcdbdb;}.cls-4{fill:#898989;opacity:0.3;}.cls-5{fill:#010101;}.cls-6{fill:#b0b0b0;}.cls-7{fill:#717171;}.cls-8{fill:#881722;}.cls-9{fill:#ab2f3a;}.cls-10{fill:#fff;}.cls-11{fill:#3a3b3a;}.cls-12{clip-path:url(#clip-path);}.cls-13{fill:url(#New_Gradient_Swatch_1);}.cls-14{fill:#f7e5e3;}.cls-15{fill:#5c5c5c;}.cls-16{fill:#f7f8f8;}</style><clipPath id="clip-path"><path class="cls-1" d="M47.65,95.72l10.58,18.15a11.28,11.28,0,0,0,10,5.43l80-1.45S135,106.5,123.06,99.34A30.06,30.06,0,0,0,106.71,95Z"/></clipPath><linearGradient id="New_Gradient_Swatch_1" x1="75.07" y1="102.42" x2="74.71" y2="107.42" gradientUnits="userSpaceOnUse"><stop offset="0" stop-color="#e5b8b1"/><stop offset="1" stop-color="#f7e5e3"/></linearGradient></defs><title>04_1</title><g id="Layer_2" data-name="Layer 2"><g id="pic_04" data-name="pic 04"><polygon class="cls-2" points="131.27 28.66 131.27 128.1 215.05 128.1 215.05 63.2 177.49 63.2 177.49 39.91 131.27 28.66"/><polygon class="cls-3" points="74.11 0 67.89 0 67.89 65.51 44.75 65.51 44.75 46.49 15.78 46.37 15.78 156.64 235.06 156.76 235.45 111.1 190.46 76 119.11 76 119.11 32.2 107.4 32.2 107.4 19.07 99.78 19.07 99.78 5.85 85.82 5.85 85.82 27.17 78.87 27.17 78.87 18.29 78.87 0 74.11 0"/><rect class="cls-4" x="99.28" y="39.57" width="4.48" height="10.33" transform="translate(203.04 89.47) rotate(-180)"/><rect class="cls-4" x="90.03" y="39.57" width="4.48" height="10.33" transform="translate(184.54 89.47) rotate(-180)"/><rect class="cls-4" x="80.78" y="39.57" width="4.48" height="10.33" transform="translate(166.04 89.47) rotate(-180)"/><rect class="cls-4" x="99.28" y="55.28" width="4.48" height="10.33" transform="translate(203.04 120.88) rotate(-180)"/><rect class="cls-4" x="90.03" y="55.28" width="4.48" height="10.33" transform="translate(184.54 120.88) rotate(-180)"/><rect class="cls-4" x="187.09" y="102.99" width="4.48" height="10.33" transform="translate(378.66 216.32) rotate(-180)"/><rect class="cls-4" x="177.84" y="102.99" width="4.48" height="10.33" transform="translate(360.16 216.32) rotate(-180)"/><rect class="cls-4" x="80.78" y="55.28" width="4.48" height="10.33" transform="translate(166.04 120.88) rotate(-180)"/><ellipse class="cls-5" cx="170.98" cy="173.25" rx="17.82" ry="23.73"/><path class="cls-5" d="M61.65,200.24l14.55.58s8.2.29,10.37-14.42c0,0-3.24-29.94-15.32-33.44S61.65,200.24,61.65,200.24Z"/><ellipse class="cls-5" cx="61.65" cy="173.25" rx="14.55" ry="26.99"/><ellipse class="cls-6" cx="59.53" cy="173.98" rx="9.75" ry="21.01"/><ellipse class="cls-7" cx="59.53" cy="173.98" rx="7.39" ry="15.93"/><ellipse class="cls-5" cx="59.04" cy="173.07" rx="1.71" ry="3.1"/><path class="cls-8" d="M145,110.52s1.8-2.55,5.41-.62,6.66,6.21,5.7,8.43S145.08,117.82,145,110.52Z"/><path class="cls-9" d="M205.55,152c-.06-12.53-4.37-14.11-7.84-15.83,0,0-39.38-16.57-41.58-17.89,0,0-28.35-24.86-39.92-27-4.55-.86-24.89-3.39-36.49-3.39,0,0-42,1-60.43,1.65a14.19,14.19,0,0,0-8.95,3.57L0,102.28v69.17l47.09,15c-.41-1.53-1.18-5.89-1.3-15.16-.16-12.68,4-25.05,11-25.09,18.82-.1,22.58,48.6,22.58,48.6,40.58.65,117.33-5.89,117.33-5.89v-2.62c2.29-.49,8.69-4.43,8.69-4.43l.37-10.93,1.72-1.35V152.16Z"/><path class="cls-5" d="M45.33,94.29l11.19,20.49a11.78,11.78,0,0,0,10.56,6.13l84.69-1.64s-14-12.8-26.64-20.89a31.31,31.31,0,0,0-17.31-5Z"/><path class="cls-10" d="M47.65,95.72l10.58,18.15a11.28,11.28,0,0,0,10,5.43l80-1.45S135,106.5,123.06,99.34A30.06,30.06,0,0,0,106.71,95Z"/><path class="cls-10" d="M79.5,136.82l32.67,6.69a17.92,17.92,0,0,1,14,14c.14.7.26,1.44.35,2.2L102,156.88S84.23,155.15,79.5,136.82Z"/><path class="cls-6" d="M134,147.55l8.53,12.13s5.69,8.72,29.28,6.32c22.17-2.25,21.29-9.79,21.48-13.76.14-2.9,0-8,0-8Z"/><path class="cls-10" d="M196.76,138.18s1.2,10.1.49,16.5c0,0,6.82-1.12,7-7C204.34,142.47,201.3,138.7,196.76,138.18Z"/><polygon class="cls-5" points="145.1 181.08 148.31 188.02 191.78 185.58 194.26 178.97 145.1 181.08"/><path class="cls-5" d="M136.06,177.16V187.4l-47.32-1.16s3-7.72,11.46-8.34S136.06,177.16,136.06,177.16Z"/><path class="cls-5" d="M197.76,180.94v-8.18l6.57-1.27s1.5,6.68-2.54,8.07Z"/><path class="cls-11" d="M92.8,95.13s11.55,12,15.19,23.45l15.21-.29S117.14,101.41,107.68,95Z"/><path class="cls-9" d="M107.46,114.8"/><g class="cls-12"><path class="cls-5" d="M75.6,107.61s-24.25-1.4-24.25,15.59c0,9.37,11.58,20.66,11.58,20.66L87.18,147h28.37s-6.32-12-11.58-22.71C96.37,108.82,75.6,107.61,75.6,107.61Z"/><path class="cls-13" d="M74.52,100.17H70.69s.1,8.19-1.56,9.94c0,0,1.17,2.09,5.31,2.09,4.56,0,5.46-2.09,5.46-2.09-1.83-2-1.56-9.94-1.56-9.94Z"/><ellipse class="cls-14" cx="74.74" cy="98.99" rx="4.23" ry="5.51"/><path class="cls-14" d="M70.9,98.68s-.56-.91-1.07-.49-.06,1.87.75,2Z"/><path class="cls-14" d="M78.33,98.78s.56-.91,1.07-.49.06,1.87-.75,2Z"/><path class="cls-5" d="M74.74,93.16H71.18a.88.88,0,0,0-.88.92l.28,6.09,1.32-2.09V96.15h6.2v1.93l.81,2.09.28-6.09a.88.88,0,0,0-.88-.92Z"/><path class="cls-5" d="M75.72,101.53a.07.07,0,0,0,0-.14,3,3,0,0,1-1.77-.72.07.07,0,1,0-.1.1,3.09,3.09,0,0,0,1.86.77Z"/><path class="cls-5" d="M75.1,100.12h1.33v-.06c.08-.74-.83-1.84-1-2v-.61a.07.07,0,1,0-.14,0v.67l0,0s1,1.13,1,1.86H75.1a.07.07,0,0,0,0,.14Z"/><path class="cls-14" d="M75.4,117.88s1.18.39,1.66.46c.27,0,.68-.46.38-.76a6.68,6.68,0,0,0-1.55-.73Z"/><path class="cls-15" d="M79.5,114.74c-6.24,0-11.3,3.73-11.3,8.33s5.06,8.33,11.3,8.33,11.3-3.73,11.3-8.33S85.74,114.74,79.5,114.74Zm0,15.73c-4.88,0-8.83-2.92-8.83-6.51s4-6.51,8.83-6.51,8.83,2.92,8.83,6.51S84.38,130.47,79.5,130.47Z"/><path class="cls-14" d="M73.7,115.42l1-.58.81,0,1,.35a.75.75,0,0,1-.82.47,3.32,3.32,0,0,1-.59-.12l-.69.58Z"/><path class="cls-14" d="M73,115.86s.54-.85,1-.48a11.73,11.73,0,0,1,1,1l.28,1.26-.62.24-.63-1.14Z"/><path class="cls-14" d="M72.3,116.4s.57-.85,1-.48,1,.94,1,.94l.3,1.32-.62.24-.55-1Z"/><path class="cls-14" d="M71.64,117.09s.49-1,1-.65a7.31,7.31,0,0,1,1.08,1.18L74,118.7l-.62.24-.55-1Z"/></g><path class="cls-5" d="M0,114.48l49.62,7.29s-9.18-21.82-11.44-27l-18.36,0a14.19,14.19,0,0,0-9.15,3.71c-3.25,3-7.37,6.8-10.66,9.86Z"/><path class="cls-16" d="M0,112.67l47.06,6.62S38.8,100.47,36.77,96L20.25,96A13.07,13.07,0,0,0,12,99.23c-3.8,3.33-8.93,7.9-12,10.66Z"/><path class="cls-8" d="M50.32,118.8l-4.55.28s-.48-6.43-6.39-7.15c-3.57-.44-9-.59-12.42,2.57-2,1.88-1.92,3.64-2,5.24l18,2.66,8.16,2.82Z"/><path class="cls-5" d="M24.92,119.67S46.45,123,46.79,122.8c0,0,3.87-4.16,3.53-4,0,0,2.38,5.57-.08,10.08l-4.9-3.66-19.17-3.46S24.68,121.64,24.92,119.67Z"/><path class="cls-5" d="M185.37,161.23a8.39,8.39,0,0,0,4.11-2.59l-17.66,3.89-21.29-.25a15.9,15.9,0,0,0,4.16,1.75l17.13.19,13.55-3Z"/><path class="cls-5" d="M191.32,155h0l-19.51,4.29-25.54-.3a22.79,22.79,0,0,0,2,1.72l23.59.26,19-4.17A4.09,4.09,0,0,0,191.32,155Z"/><path class="cls-5" d="M191.32,151.73,171.81,156l-28.31-.34c.4.55.83,1.13,1.28,1.72l27,.3,19.51-4.29Z"/><path class="cls-5" d="M191.32,148.48l-19.51,4.29-30.57-.36c.28.43.68,1,1.15,1.72l29.41.33,19.51-4.29Z"/></g></g></svg>