<svg xmlns="http://www.w3.org/2000/svg" xmlns:xlink="http://www.w3.org/1999/xlink" id="Layer_1" data-name="Layer 1" viewBox="0 0 519 764">
    <defs>
        <style>
            .cls-1, .cls-18, .cls-2 { fill: none; } .cls-2 { clip-rule: evenodd; } .cls-3 { clip-path: url(#clip-path); } .cls-4 { clip-path: url(#clip-path-2); } .cls-5 { clip-path: url(#clip-path-3); } .cls-6 { fill: #a8313d; } .cls-7 { clip-path: url(#clip-path-5); } .cls-8 { fill: #525252; } .cls-9 { clip-path: url(#clip-path-7); } .cls-10 { fill: #f2f2f2; } .cls-11 { clip-path: url(#clip-path-9); } .cls-12 { fill: #d8d9d8; } .cls-13 { font-size: 40px; } .cls-13, .cls-21 { fill: #fff; } .cls-13, .cls-21, .cls-22 { font-family: Prompt; } .cls-14 { clip-path: url(#clip-path-11); } .cls-15, .cls-22 { fill: #941f2f; } .cls-16 { clip-path: url(#clip-path-12); } .cls-17 { clip-path: url(#clip-path-13); } .cls-18 { stroke: #941f2f; stroke-linecap: square; stroke-miterlimit: 10; stroke-width: 3px; } .cls-19 { clip-path: url(#clip-path-14); } .cls-20 { clip-path: url(#clip-path-15); } .cls-21 { font-size: 30px; } .cls-22 { font-size: 20px; } .cls-23 { clip-path: url(#clip-path-16); } .cls-24 { clip-path: url(#clip-path-17); } .cls-25 { clip-path: url(#clip-path-18); } .cls-26 { clip-path: url(#clip-path-19); } .animate:hover { -webkit-animation: mover 1s infinite alternate; transition: 1s; animation: mover 1s infinite alternate; } @-webkit-keyframes mover { 0% { transform: translateY(0); } 100% { transform: translateY(-5px); }
        </style>
        <clipPath id="clip-path" transform="translate(-40 -64.83)">
            <rect width="509" height="254" x="45" y="308.83" class="cls-1"/>
        </clipPath>
        <clipPath id="clip-path-2" transform="translate(-40 -64.83)">
            <rect width="509" height="515" x="45" y="308.83" class="cls-1"/>
        </clipPath>
        <clipPath id="clip-path-3" transform="translate(-40 -64.83)">
            <ellipse cx="301" cy="566.33" class="cls-1" rx="194" ry="193.5"/>
        </clipPath>
        <clipPath id="clip-path-5" transform="translate(-40 -64.83)">
            <path d="M299.88,759.08C194.46,759.08,109,672.61,109,566s85.46-193.13,190.88-193.13S490.75,459.29,490.75,566,405.29,759.08,299.88,759.08ZM299.5,308.83C158.95,308.83,45,424.12,45,566.33s113.95,257.5,254.5,257.5S554,708.55,554,566.33,440.05,308.83,299.5,308.83Z" class="cls-2"/>
        </clipPath>
        <clipPath id="clip-path-7" transform="translate(-40 -64.83)">
            <path d="M275,566.82a25.5,25.5,0,1,1,25.5,26A25.75,25.75,0,0,1,275,566.82Zm101.79-.53L482,505.08c-2.09-6.19-4.4-12.28-7-18.2l-0.23-.45c-1.62-3.57-3.51-7-5.34-10.43-1.13-2.14-2.1-4.38-3.3-6.46l-0.18-.29q-4.81-8.32-10.36-16.06a189.44,189.44,0,0,0-12-15.08L338.4,499.21V376.65h-0.46c-6.06-1.23-12.19-2.2-18.45-2.83a191.83,191.83,0,0,0-39,0c-6.09.62-12.07,1.57-17.91,2.75-0.34.36-.63,0.77-1,1.17V499.21L156.57,438l-0.34.38c-4.12,4.71-8,9.6-11.69,14.69s-7.16,10.51-10.36,16.06l-0.18.29q-4.73,8.23-8.64,16.91l-0.23.45q-4,8.87-7.06,18.19l105.14,61.28L118,627.52a189.73,189.73,0,0,0,7.07,18.18l0.23,0.45q3.91,8.68,8.64,16.9l0.18,0.3q4.81,8.32,10.36,16.06a190.26,190.26,0,0,0,12,15.08l105.14-61.11V755.95l0.46,0.06c6.06,1.23,12.19,2.2,18.45,2.83a191.83,191.83,0,0,0,39,0c6.26-.63,12.4-1.6,18.45-2.83l0.46-.06V633.38l105.13,61.17a192,192,0,0,0,22.35-31.14l0.18-.29c1.2-2.09,2.18-4.32,3.3-6.46,1.83-3.46,3.73-6.85,5.34-10.43l0.24-.45q3.95-8.87,7.06-18.18Z" class="cls-2"/>
        </clipPath>
        <clipPath id="clip-path-9" transform="translate(-40 -64.83)">
            <path d="M482,505.35c-2.08-6.18-4.39-12.27-7-18.19l-0.23-.45c-1.61-3.57-3.51-7-5.33-10.42-1.13-2.14-2.1-4.37-3.3-6.45l-0.18-.29c-0.34-.6-0.77-1.13-1.12-1.73L343.46,539.45a51.6,51.6,0,0,1-16.11,70.81A50.75,50.75,0,0,1,257.08,594c-0.55-.88-1.08-1.78-1.57-2.7L134,663l0.14,0.27,0.18,0.3q4.79,8.29,10.34,16a191.62,191.62,0,0,0,12,15.06l105.1-61.12V756l0.46,0.06c6.05,1.23,12.19,2.19,18.44,2.82a191.79,191.79,0,0,0,38.94,0c6.25-.63,12.39-1.6,18.44-2.82l0.46-.06V633.52l105.06,61.11a191.8,191.8,0,0,0,22.34-31.11l0.18-.29c1.2-2.09,2.18-4.32,3.3-6.45,1.83-3.45,3.73-6.84,5.33-10.42l0.24-.45q3.94-8.86,7.06-18.16L376.86,566.5Z" class="cls-2"/>
        </clipPath>
        <clipPath id="clip-path-11" transform="translate(-40 -64.83)">
            <circle cx="159" cy="350.83" r="11" class="cls-1"/>
        </clipPath>
        <clipPath id="clip-path-12" transform="translate(-40 -64.83)">
            <circle cx="248" cy="314.83" r="11" class="cls-1"/>
        </clipPath>
        <clipPath id="clip-path-13" transform="translate(-40 -64.83)">
            <circle cx="357" cy="314.83" r="11" class="cls-1"/>
        </clipPath>
        <clipPath id="clip-path-14" transform="translate(-40 -64.83)">
            <path d="M182.42,69.83H304.23c1.7,0,3.07,2.69,3.07,6v57c0,3.31-1.37,6-3.07,6H182.42c-1.7,0-3.07-2.69-3.07-6v-57C179.35,72.51,180.72,69.83,182.42,69.83Z" class="cls-2"/>
        </clipPath>
        <clipPath id="clip-path-15" transform="translate(-40 -64.83)">
            <rect width="171" height="38" x="220.35" y="125.83" class="cls-1" rx="6" ry="6"/>
        </clipPath>
        <clipPath id="clip-path-16" transform="translate(-40 -64.83)">
            <rect width="250" height="69" x="264" y="191.83" class="cls-1" rx="6" ry="6"/>
        </clipPath>
        <clipPath id="clip-path-17" transform="translate(-40 -64.83)">
            <rect width="100" height="38" x="423" y="247.83" class="cls-1" rx="6" ry="6"/>
        </clipPath>
        <clipPath id="clip-path-18" transform="translate(-40 -64.83)">
            <rect width="136" height="69" x="65" y="191.83" class="cls-1" rx="6" ry="6"/>
        </clipPath>
        <clipPath id="clip-path-19" transform="translate(-40 -64.83)">
            <rect width="144" height="38" x="87" y="247.83" class="cls-1" rx="6" ry="6"/>
        </clipPath>
    </defs>
    <title>
        size
    </title>
    <g>
        <g class="cls-3">
            <g class="cls-4">
                <g class="cls-5">
                    <g class="cls-3">
                        <rect width="398" height="397" x="62" y="303" class="cls-6"/>
                    </g>
                </g>
                <g class="cls-7">
                    <g class="cls-3">
                        <rect width="519" height="525" y="239" class="cls-8"/>
                    </g>
                </g>
                <g class="cls-9">
                    <g class="cls-3">
                        <rect width="374" height="397" x="73" y="303" class="cls-10"/>
                    </g>
                </g>
                <g class="cls-11">
                    <g class="cls-3">
                        <rect width="358" height="302" x="89" y="398" class="cls-12"/>
                    </g>
                </g>
            </g>
        </g>
        <g>
            <text class="cls-13" transform="translate(98.62 372.86) rotate(-55)">
                P
            </text>
            <text class="cls-13" transform="matrix(0.72, -0.69, 0.69, 0.72, 115.57, 349.9)">
                2
            </text>
            <text class="cls-13" transform="translate(132.86 333.6) rotate(-36)">
                0
            </text>
            <text class="cls-13" transform="translate(156.98 317.53) rotate(-31)">
                5
            </text>
            <text class="cls-13" transform="translate(196.19 300.33) rotate(-18)">
                5
            </text>
            <text class="cls-13" transform="translate(220.25 294.24) rotate(-9)">
                5
            </text>
            <text class="cls-13" transform="translate(252.86 289.6)">
                R
            </text>
            <text class="cls-13" transform="translate(287.71 291.83) rotate(8)">
                1
            </text>
            <text class="cls-13" transform="matrix(0.96, 0.29, -0.29, 0.96, 306.31, 293.58)">
                6
            </text>
            <text class="cls-13" transform="translate(344.71 308.43) rotate(28)">
                9
            </text>
            <text class="cls-13" transform="matrix(0.83, 0.56, -0.56, 0.83, 369.23, 321.33)">
                1
            </text>
            <text class="cls-13" transform="matrix(0.7, 0.71, -0.71, 0.7, 386.38, 330.95)">
                S
            </text>
            <text class="cls-13" transform="translate(179.58 307.53) rotate(-31)">
                /
            </text>
            <g class="cls-14">
                <rect width="32" height="32" x="103" y="270" class="cls-15"/>
            </g>
            <g class="cls-16">
                <rect width="32" height="32" x="192" y="234" class="cls-15"/>
            </g>
            <g class="cls-17">
                <rect width="32" height="32" x="301" y="234" class="cls-15"/>
            </g>
            <line x1="119.5" x2="119.5" y1="278.5" y2="182.6" class="cls-18"/>
            <line x1="317.5" x2="317.5" y1="249.5" y2="138.5" class="cls-18"/>
        </g>
        <line x1="207.5" x2="207.5" y1="243.5" y2="52.5" class="cls-18"/>
    </g>
    <g class="animate">
        <g class="cls-19">
            <rect width="133.07" height="79" x="136.79" class="cls-15"/>
        </g>
        <g class="cls-20">
            <rect width="181" height="48" x="175.35" y="56" class="cls-12"/>
        </g>
        <text class="cls-21" transform="translate(156.67 50)">
            SERIES
        </text>
        <text class="cls-22" transform="translate(193.72 87)">
            WIDTH/HEIGHT
        </text>
    </g>
    <g class="animate">
        <g class="cls-23">
            <rect width="260" height="79" x="219" y="122" class="cls-15"/>
        </g>
        <g class="cls-24">
            <rect width="110" height="48" x="378" y="178" class="cls-12"/>
        </g>
        <text class="cls-21" transform="translate(245.35 172)">
            RIM DIAMETER
        </text>
        <text class="cls-22" transform="translate(398.16 209)">
            INCHES
        </text>
    </g>
    <g class="animate">
        <g class="cls-25">
            <rect width="146" height="79" x="20" y="122" class="cls-15"/>
        </g>
        <g class="cls-26">
            <rect width="154" height="48" x="42" y="178" class="cls-12"/>
        </g>
        <text class="cls-21" transform="translate(43.33 171)">
            WIDTH
        </text>
        <text class="cls-22" transform="translate(57.32 209)">
            MILLIMETERS
        </text>
    </g>
</svg>
