<?xml version="1.0" encoding="UTF-8"?>
<svg width="134px" height="146px" viewBox="0 0 134 146" version="1.1" xmlns="http://www.w3.org/2000/svg" xmlns:xlink="http://www.w3.org/1999/xlink">
    <!-- Generator: Sketch 50.2 (55047) - http://www.bohemiancoding.com/sketch -->
    <title>Group 7</title>
    <desc>Created with Sketch.</desc>
    <defs>
        <path d="M0,53.2700672 L0,71.5908908 L43.9363375,77.9416639 C43.9363375,77.9416639 42.3841,43.6596807 51.461675,24.4775798 C59.39445,7.71741176 25.6500125,0.64497479 25.6500125,0.64497479 L0,53.2700672 Z" id="path-1"></path>
        <linearGradient x1="65.7265091%" y1="30.2869705%" x2="53.7618387%" y2="57.0661699%" id="linearGradient-3">
            <stop stop-color="#C0C0C0" offset="0%"></stop>
            <stop stop-color="#F9F9FA" offset="100%"></stop>
        </linearGradient>
        <polygon id="path-4" points="0.360354902 0.0610188341 47.8075216 0.0610188341 47.8075216 67.4349776 0.360354902 67.4349776"></polygon>
    </defs>
    <g id="Revise" stroke="none" stroke-width="1" fill="none" fill-rule="evenodd">
        <g id="Flash-Message" transform="translate(-653.000000, -460.000000)">
            <g id="Group-12" transform="translate(66.000000, 201.000000)">
                <g id="Group-10" transform="translate(450.000000, 164.000000)">
                    <g id="Group-7" transform="translate(137.000000, 95.000000)">
                        <g id="Group-3" transform="translate(0.000000, 16.000000)">
                            <mask id="mask-2" fill="white">
                                <use xlink:href="#path-1"></use>
                            </mask>
                            <g id="Clip-2" opacity="0"></g>
                            <path d="M0,53.2700672 L0,71.5908908 L43.9363375,77.9416639 C43.9363375,77.9416639 42.3841,43.6596807 51.461675,24.4775798 C59.39445,7.71741176 25.6500125,0.64497479 25.6500125,0.64497479 L0,53.2700672 Z" id="Fill-1" fill="#F6E4E2" mask="url(#mask-2)"></path>
                            <path d="M0,53.2700672 L0,71.5908908 L43.9363375,77.9416639 C43.9363375,77.9416639 42.3841,43.6596807 51.461675,24.4775798 C59.39445,7.71741176 25.6500125,0.64497479 25.6500125,0.64497479 L0,53.2700672 Z" id="Fill-1" fill="url(#linearGradient-3)" opacity="0.357366071" mask="url(#mask-2)"></path>
                        </g>
                        <g id="Group-39">
                            <g id="Group-6" transform="translate(80.794118, 78.565022)">
                                <mask id="mask-5" fill="white">
                                    <use xlink:href="#path-4"></use>
                                </mask>
                                <g id="Clip-5"></g>
                                <polygon id="Fill-4" fill="#F6E4E2" mask="url(#mask-5)" points="16.2886196 10.112104 19.0888255 22.5561489 0.360354902 53.6692072 31.7281784 67.4351085 39.4594529 35.0388215 47.8075216 0.0610188341"></polygon>
                            </g>
                            <path d="M58.0989186,34.7498332 C53.4522716,45.6612054 42.4169775,51.4318063 33.450801,47.6384251 C24.4839676,43.8450439 19.5430461,29.678461 22.3563892,23.072452 C27.0023794,12.1610798 41.3108206,4.33142063 50.2769971,8.12480179 C59.2431735,11.9175283 62.7455657,23.838461 58.0989186,34.7498332" id="Fill-7" fill="#F6E4E2"></path>
                            <path d="M59.8899206,21.7031946 L61.1852539,37.9785937 L56.1806167,35.8612664 C56.1806167,35.8612664 54.7867539,28.613643 59.8899206,21.7031946" id="Fill-9" fill="#F6E4E2"></path>
                            <path d="M45.4772353,27.0145175 L50.3452451,15.8726879 L59.558402,19.7708224 L64.0309804,14.0977731 C64.4264118,13.5956117 64.2359216,12.8564457 63.6460588,12.6076565 L35.270902,0.602921076 C33.7049412,-0.0589892377 31.896598,0.669046637 31.2318529,2.22987175 L22.3563235,23.0725175 L45.4772353,27.0145175 Z" id="Fill-11" fill="#020303"></path>
                            <path d="M47.6880382,21.9748332 C47.6880382,21.9748332 45.3923029,20.3380619 43.5031657,21.8550215 C41.4228814,23.5258377 41.2632637,28.9081964 44.4102931,30.6516852 L47.6880382,21.9748332 Z" id="Fill-13" fill="#F6E4E2"></path>
                            <path d="M91.889252,83.8884574 L110.634801,49.7283857 C111.118909,48.8451839 112.087125,48.3364753 113.091468,48.4366457 L131.134174,50.2403677 C132.863036,50.4132108 133.898909,52.2398475 133.155997,53.8052556 L115.598056,91.9695247 C115.06534,93.0916951 113.789056,93.6560538 112.59685,93.2959641 L93.3665363,87.4880448 C91.8393304,87.02713 91.1240069,85.2836413 91.889252,83.8884574" id="Fill-15" fill="#474748"></path>
                            <path d="M93.9468088,85.0751821 L92.1640833,86.6936215 C92.1640833,86.6936215 90.6815441,85.3671821 90.7689069,83.3493704 L93.9468088,85.0751821 Z" id="Fill-17" fill="#474748"></path>
                            <path d="M130.738808,48.7410197 C130.738808,48.7410197 134.180112,49.5103022 133.288092,53.4634323 L129.095994,51.743513 L130.738808,48.7410197 Z" id="Fill-19" fill="#474748"></path>
                            <path d="M91.0782235,82.3098897 L109.823773,48.1498179 C110.30788,47.2666161 111.276096,46.7579076 112.280439,46.858078 L130.323145,48.6618 C132.052008,48.834643 133.08788,50.6612798 132.344969,52.2266879 L114.787027,90.390957 C114.254312,91.5131274 112.978027,92.0774861 111.785822,91.7173964 L92.5555078,85.9094771 C91.028302,85.4485623 90.3129784,83.7050735 91.0782235,82.3098897" id="Fill-21" fill="#020303"></path>
                            <polygon id="Fill-23" fill="#FEFEFE" points="109.767611 50.0725004 130.739925 52.6788951 114.927268 86.6936215 92.92565 80.5635857"></polygon>
                            <path d="M109.952189,63.7987265 L109.492385,63.7024843 L105.629375,62.8952287 L105.399474,62.847435 L105.274013,63.0379552 L105.149209,63.2265112 L104.89763,63.6068969 L105.357434,63.703139 L106.372287,63.9152646 L104.988277,66.0070583 C104.87267,66.1681166 104.810268,66.2872735 104.785964,66.3920269 L104.781366,66.4090493 C104.76363,66.4849955 104.762974,66.5629058 104.780709,66.6421256 L104.783336,66.654565 L104.787277,66.6670045 C104.822091,66.7783049 104.930474,66.9753722 105.272042,67.0467354 L106.139101,67.227435 L106.370317,67.2758834 L106.495777,67.0840538 L108.068964,64.673417 C108.132679,64.5869955 108.177346,64.4914081 108.20165,64.3879641 C108.208875,64.3585022 108.213474,64.3296951 108.215444,64.3008879 L109.220444,64.5103946 L109.450346,64.5581883 L109.575807,64.3683229 L109.700611,64.1797668 L109.952189,63.7987265 Z M109.41816,64.0121614 L109.294013,64.2007175 L107.536905,63.833426 L107.439689,63.9872825 L107.559895,64.0128161 C107.682072,64.0383498 107.772719,64.078287 107.831836,64.1319731 C107.879787,64.1810762 107.894895,64.2432735 107.876503,64.3205291 C107.860738,64.3853453 107.832493,64.4449238 107.791768,64.4992646 L106.21267,66.9177578 L105.345611,66.7370583 C105.210954,66.7089058 105.131474,66.6552197 105.10717,66.5753453 C105.099287,66.5406457 105.099287,66.5079103 105.106513,66.477139 L105.111111,66.4594619 C105.125562,66.3972646 105.177454,66.3036413 105.266787,66.1792466 L106.906317,63.7018296 L105.431003,63.3934619 L105.555807,63.2049058 L109.41816,64.0121614 Z" id="Fill-25" fill="#A72F3E"></path>
                            <path d="M109.250069,65.3610574 L109.03002,65.7165641 C109.189637,65.7499543 109.244157,65.7231112 109.327578,65.5875865 C109.410343,65.4520619 109.409686,65.3944475 109.250069,65.3610574" id="Fill-27" fill="#A72F3E"></path>
                            <path d="M118.611808,67.3134637 C118.508024,67.2918583 118.457445,67.3520915 118.253161,67.6801004 C118.048876,68.0153112 118.0272,68.0703067 118.131641,68.0919121 C118.235425,68.1135175 118.281406,68.0644143 118.48569,67.7285489 C118.689975,67.4005399 118.715592,67.3350691 118.611808,67.3134637" id="Fill-29" fill="#A72F3E"></path>
                            <path d="M113.178896,66.1781991 C113.075112,66.1565937 113.024533,66.2168269 112.820249,66.5448359 C112.615965,66.8800466 112.594945,66.9350422 112.698729,66.9566475 C112.802514,66.9782529 112.848494,66.9291498 113.053435,66.5932843 C113.257063,66.2652753 113.28268,66.1998045 113.178896,66.1781991" id="Fill-31" fill="#A72F3E"></path>
                            <path d="M119.701872,68.6628179 L119.37147,68.5940735 L119.709097,68.0493561 L119.263744,68.5711587 L119.058146,68.5286027 L119.28345,67.9603157 L118.945823,68.5050332 L118.616077,68.4356341 L119.361617,67.2276969 L119.713038,67.3010242 L119.514666,67.9740646 L120.096646,67.3808987 L120.448068,67.454226 L119.701872,68.6628179 Z M117.98746,68.3276072 C117.540793,68.2339839 117.611077,68.0598314 117.890244,67.6041543 C118.162185,67.1641901 118.309323,66.9848 118.755332,67.0777686 C119.201999,67.1713919 119.121205,67.3645309 118.849264,67.8044951 C118.570754,68.2601722 118.434126,68.4205758 117.98746,68.3276072 Z M116.949617,68.1102439 C116.511489,68.0192395 116.541048,67.8549076 116.831381,67.3828628 C117.113175,66.9258762 117.287901,66.771365 117.718146,66.8610601 C118.041979,66.9284951 118.067597,67.1268717 117.915862,67.3763157 L117.554587,67.3010242 C117.62093,67.1923426 117.648519,67.1124682 117.557215,67.0928269 C117.45343,67.0712215 117.398911,67.1308 117.195283,67.458809 C116.990342,67.7940197 116.971293,67.84967 117.075077,67.8712753 C117.166381,67.8902619 117.232068,67.8215175 117.302352,67.710217 L117.663626,67.7861632 C117.509264,68.0342978 117.27345,68.1783336 116.949617,68.1102439 Z M116.366323,67.9655534 L116.092411,67.9085937 L116.229038,67.6846834 L116.50295,67.7422978 L116.366323,67.9655534 Z M116.061538,67.636235 L115.915715,67.87193 L115.226009,67.7278942 L115.972205,66.5193022 L116.661911,66.6633381 L116.51543,66.8983785 L116.156783,66.823087 L116.008989,67.0620556 L116.264509,67.115087 L116.120656,67.3507821 L115.865136,67.2977507 L115.702234,67.5615982 L116.061538,67.636235 Z M114.661107,67.6323067 C114.303774,67.55767 114.34844,67.3586386 114.502146,67.1098493 L114.863421,67.1857955 C114.796421,67.2938224 114.740587,67.3835175 114.80496,67.3966117 C114.854225,67.407087 114.889695,67.3671498 114.930421,67.2990601 C115.069019,67.0758045 114.586881,67.0077148 114.809558,66.6450063 C114.96195,66.396217 115.109087,66.3156879 115.445401,66.3863964 C115.748872,66.4492484 115.75347,66.6436969 115.601734,66.8924861 L115.24046,66.8171946 C115.331107,66.6698852 115.345558,66.6306027 115.293666,66.6201274 C115.247685,66.6103067 115.21747,66.6286386 115.157695,66.7255354 C115.025666,66.9383157 115.507146,67.0240825 115.291038,67.3763157 C115.165577,67.5792753 115.042744,67.7121812 114.661107,67.6323067 Z M113.637715,67.4188717 C113.254107,67.3383426 113.210754,67.2335892 113.501087,66.7615444 L113.915568,66.0891587 L114.251881,66.1598673 L113.837401,66.8315982 C113.673185,67.099374 113.651509,67.1707372 113.775656,67.1969256 C113.90046,67.2231139 113.959577,67.1589525 114.123793,66.8918314 L114.538274,66.2194457 L114.874587,66.2894996 L114.460107,66.9618852 C114.169774,67.43393 114.021979,67.4987462 113.637715,67.4188717 Z M112.554548,67.1923426 C112.108538,67.0987193 112.178166,66.9245668 112.457332,66.4688897 C112.729274,66.0289256 112.876411,65.8495354 113.323077,65.942504 C113.769087,66.0361274 113.68895,66.2292664 113.416352,66.6692305 C113.137842,67.1249076 113.001215,67.2853112 112.554548,67.1923426 Z M111.623774,66.9749794 L111.917391,66.5009704 L111.695372,66.4544861 L111.401754,66.9284951 L111.072009,66.8597507 L111.817548,65.6511587 L112.14795,65.7199031 L111.839225,66.2194457 L112.061244,66.26593 L112.36997,65.7663874 L112.700372,65.8351318 L111.954175,67.0437238 L111.623774,66.9749794 Z M110.50645,66.7641632 C110.149117,66.6895265 110.193783,66.4904951 110.347489,66.2417058 L110.708764,66.317652 C110.642421,66.4256789 110.58593,66.515374 110.650303,66.5284682 C110.700225,66.5389435 110.735695,66.4990063 110.775764,66.4309166 C110.914362,66.207661 110.432225,66.1395713 110.655558,65.7768628 C110.807293,65.5280735 110.95443,65.4475444 111.290744,65.5182529 C111.594215,65.5811049 111.59947,65.7755534 111.447077,66.0243426 L111.08646,65.9490511 C111.17645,65.8017417 111.190901,65.7624592 111.139009,65.7519839 C111.093028,65.7421632 111.062813,65.7604951 111.003038,65.8573919 C110.871666,66.0701722 111.352489,66.155939 111.136381,66.5081722 C111.010921,66.7111318 110.888744,66.8440377 110.50645,66.7641632 Z M110.152401,66.4014547 L110.006577,66.6371498 L109.317528,66.4931139 L110.063068,65.284522 L110.752774,65.4285578 L110.60695,65.6635982 L110.247646,65.5883067 L110.099852,65.8272753 L110.355372,65.8803067 L110.211519,66.1160018 L109.955999,66.0629704 L109.793097,66.3268179 L110.152401,66.4014547 Z M109.190754,66.4662709 L108.860352,66.3975265 C108.905019,66.2731318 109.105362,66.0531498 109.039675,65.9208987 L108.91947,65.895365 L108.638332,66.3510422 L108.30793,66.2822978 L109.054126,65.0737058 L109.384528,65.1424502 C109.772734,65.2236341 109.835793,65.3670152 109.67946,65.6210422 C109.594725,65.7598404 109.500136,65.8547731 109.375332,65.8822709 C109.482401,66.0282709 109.23345,66.3183067 109.190754,66.4662709 Z M107.827764,66.1814726 L108.573303,64.9728807 L108.903705,65.0422798 L108.157509,66.250217 L107.827764,66.1814726 Z M110.009205,64.3247193 L109.65844,64.8478314 L108.380185,64.5807103 C108.380185,64.6213022 108.375587,64.6625489 108.365734,64.7051049 C108.342087,64.8039659 108.298734,64.8956251 108.236989,64.9781184 L107.015225,66.8243964 L119.76493,69.4884054 L121.518754,66.7294637 L110.009205,64.3247193 Z" id="Fill-33" fill="#A72F3E"></path>
                            <path d="M128.02649,75.9757157 L119.6285,67.7781103 C118.927627,67.0939399 117.384,67.12733 116.697578,69.0436619 C116.168804,70.5193749 116.085382,72.67533 117.452971,74.3579309 C119.544422,76.9309354 120.236098,77.837052 120.236098,77.837052 C120.236098,77.837052 117.358382,91.7568099 121.637186,96.5329085 L128.601902,78.6259758 C128.959235,77.7074197 128.732618,76.6651238 128.02649,75.9757157" id="Fill-35" fill="#F6E4E2"></path>
                            <path d="M0,145.999935 L112.521902,145.999935 C103.298892,107.222858 72.6181471,78.607513 26.7382549,78.607513 C21.7868235,78.607513 11.2651961,78.5669211 0,78.5282933 L0,145.999935 Z" id="Fill-37" fill="#AB2E39"></path>
                        </g>
                    </g>
                </g>
            </g>
        </g>
    </g>
</svg>