<?xml version="1.0" encoding="UTF-8"?>
<svg width="273px" height="90px" viewBox="0 0 273 90" version="1.1" xmlns="http://www.w3.org/2000/svg" xmlns:xlink="http://www.w3.org/1999/xlink">
    <!-- Generator: Sketch 50.2 (55047) - http://www.bohemiancoding.com/sketch -->
    <title>Group</title>
    <desc>Created with Sketch.</desc>
    <defs>
        <polygon id="path-1" points="0.000375688073 0.881188406 217.872783 0.881188406 217.872783 64.7093913 0.000375688073 64.7093913"></polygon>
        <path d="M0.644,5.10584615 C5.18,8.22092308 6.67927273,14.6541538 6.67927273,14.6541538 L13.9910909,7.42830769 L3.38036364,0.175384615 L0.644,5.10584615 Z" id="path-3"></path>
        <linearGradient x1="6.05852389%" y1="31.9056588%" x2="28.0727367%" y2="46.17805%" id="linearGradient-5">
            <stop stop-color="#E9EAEB" offset="0%"></stop>
            <stop stop-color="#F9F9FA" offset="100%"></stop>
        </linearGradient>
        <polygon id="path-6" points="0.0248788732 0.214 43.9332169 0.214 43.9332169 44 0.0248788732 44"></polygon>
    </defs>
    <g id="Revise" stroke="none" stroke-width="1" fill="none" fill-rule="evenodd">
        <g id="Flash-Message" transform="translate(-134.000000, -489.000000)">
            <g id="Group-12" transform="translate(66.000000, 201.000000)">
                <g id="Group-11" transform="translate(0.000000, 164.000000)">
                    <g id="Group" transform="translate(68.000000, 124.000000)">
                        <polygon id="Fill-1" fill="#878686" points="146.700504 74.2914405 146.700504 76.6450939 143.661625 76.6450939 143.661625 67.4346555 143.61751 67.4346555 142.786892 65.6321503 142.786892 61 137.566221 61 137.566221 65.6321503 136.735602 67.4346555 136.691487 67.4346555 136.691487 76.6450939 135 76.6450939 135 79 136.691487 79 143.661625 79 146.700504 79 148 79 148 76.6450939 148 74.2914405"></polygon>
                        <g id="Group-51">
                            <g id="Group-4">
                                <mask id="mask-2" fill="white">
                                    <use xlink:href="#path-1"></use>
                                </mask>
                                <g id="Clip-3"></g>
                                <path d="M52.5553803,21.7941449 C52.5553803,21.7941449 18.5894216,24.3118261 10.0011922,30.9674783 C10.0011922,30.9674783 1.95520596,38.3410435 0.870719725,46.076058 C-0.213766514,53.8098261 0.870719725,57.2273913 0.870719725,57.2273913 L0.000375688073,57.6922899 L0.000375688073,59.932029 C0.000375688073,59.932029 2.91321055,62.6553623 6.1791922,62.8311014 C9.44517385,63.0068406 21.2292564,63.0953333 21.2292564,63.0953333 C21.2292564,63.0953333 16.6220683,45.6410725 33.853628,39.5550145 C40.6886463,37.1407826 56.1156509,38.719942 58.0792472,55.4363478 C58.3497427,57.7396522 57.9327289,61.986058 57.2364537,64.7093913 L153.648032,64.7093913 C153.648032,64.7093913 149.184857,43.6169565 168.972348,38.8695072 C175.154922,37.3863188 185.193307,38.9729565 189.491178,50.1143188 C189.491178,50.1143188 191.17927,55.5435362 190.139867,61.3603768 C190.139867,61.3603768 212.27666,58.7367536 213.088146,58.7367536 C213.899633,58.7367536 218.973926,56.1106377 217.655261,53.7873913 C216.335344,51.4641449 216.741087,41.5654203 216.741087,41.5654203 L211.565357,36.1112754 C211.565357,36.1112754 213.189582,32.5753043 212.175224,27.2221159 C212.175224,27.2221159 212.27666,23.5851884 209.433954,20.7571594 C209.433954,20.7571594 211.058178,20.5552464 211.869665,17.3233913 C211.869665,17.3233913 204.527467,15.6208406 197.684935,16.3574493 C190.842403,17.094058 190.935073,17.8294203 190.935073,17.8294203 L158.940224,3.56463768 C158.940224,3.56463768 154.021215,0.872463768 140.731876,0.881188406 C126.52711,0.888666667 110.745706,1.53927536 100.153807,1.86333333 C95.4063619,2.00791304 90.9807564,2.60368116 81.4232518,7.58295652 C70.644761,13.1978841 52.5553803,21.7941449 52.5553803,21.7941449" id="Fill-2" fill="#AB2E39" mask="url(#mask-2)"></path>
                            </g>
                            <path d="M57.0392174,24.6446087 C57.0392174,24.6446087 82.8790431,10.0582609 85.5314009,8.71965217 C88.7297587,7.1055942 94.0933321,3.69052174 117.393506,3.69052174 C140.692428,3.69052174 148.862392,4.76863768 151.211694,5.66727536 C153.026268,6.36275362 159.417974,10.6876812 165.957451,21.2918551 C165.957451,21.2918551 70.8207083,26.4194493 63.7264651,26.5814783 C59.216956,26.6836812 57.041722,26.6001739 57.0392174,24.6446087" id="Fill-5" fill="#020303"></path>
                            <path d="M114.211053,6.77916812 L112.015782,20.9479797 L66.3759427,23.5641246 C65.515617,23.6837768 65.5819885,22.9085304 66.4034931,22.2280087 C68.066539,20.8482696 87.8402546,10.4821536 89.5596537,9.6931971 C91.817539,8.65621159 98.0001124,6.14850145 114.211053,6.77916812" id="Fill-7" fill="#707170"></path>
                            <path d="M121.194343,21.3003304 L122.023361,6.43230145 C122.023361,6.43230145 140.091453,6.38493913 146.013549,7.35212754 C151.445999,8.23954783 153.191696,9.61804058 156.643017,13.1577507 C160.825678,17.445287 161.518196,19.5067942 161.518196,19.5067942 L121.194343,21.3003304 Z" id="Fill-9" fill="#707170"></path>
                            <path d="M211.932279,25.3018232 C211.932279,25.3018232 210.369417,26.4497362 208.146596,26.2752435 C205.925027,26.1007507 201.305316,26.8573014 201.305316,26.8573014 C201.305316,26.8573014 200.486316,28.020171 202.0066,29.3014464 C203.528137,30.5814754 204.755385,32.6143159 208.08899,32.7913014 C211.421344,32.968287 211.813311,35.4435913 211.813311,35.4435913 C211.813311,35.4435913 214.430605,29.846113 211.932279,25.3018232" id="Fill-11" fill="#020303"></path>
                            <path d="M7.85313303,50.367458 C7.85313303,50.367458 4.92151376,50.2951681 4.92151376,52.4177478 L4.92151376,56.397429 L7.63523394,56.397429 L7.85313303,50.367458 Z" id="Fill-13" fill="#020303"></path>
                            <path d="M6.38707294,41.2193014 C6.38707294,41.2193014 9.14086651,38.1744029 17.5600362,37.9724899 L24.3562335,32.7913014 C24.3562335,32.7913014 12.4882472,32.6217942 10.8652748,33.4294464 C9.24230229,34.2370986 5.84107294,36.6288957 6.38707294,41.2193014" id="Fill-15" fill="#FEFEFE"></path>
                            <path d="M70.8213344,23.0787855 L70.8213344,17.9973072 L68.6172977,17.9973072 C67.3186693,17.9973072 66.1014399,18.6254812 65.3550729,19.6836551 C64.6988711,20.6122058 63.9537564,21.6865826 63.6131326,22.2412203 C63.2687518,22.8033362 62.2919628,24.6928435 64.574894,24.6928435 L69.8007151,24.6928435 C70.559605,24.5831623 70.8213344,24.2142348 70.8213344,23.0787855" id="Fill-17" fill="#AB2E39"></path>
                            <path d="M113.093005,29.0834551 L108.583496,29.0834551 L108.415689,29.0834551 L103.906179,29.0834551 C103.442831,29.0834551 102.980734,29.2990783 102.980734,30.0967594 C102.980734,30.7722957 103.353918,31.041513 103.790968,31.1050783 L108.415689,31.1050783 L108.583496,31.1050783 L113.208216,31.1050783 C113.645267,31.041513 114.01845,30.7722957 114.01845,30.0967594 C114.01845,29.2990783 113.556354,29.0834551 113.093005,29.0834551" id="Fill-19" fill="#020303"></path>
                            <path d="M162.14547,29.0834551 L157.635961,29.0834551 L157.468153,29.0834551 L152.958644,29.0834551 C152.495295,29.0834551 152.033199,29.2990783 152.033199,30.0967594 C152.033199,30.7722957 152.406383,31.041513 152.843433,31.1050783 L157.468153,31.1050783 L157.635961,31.1050783 L162.260681,31.1050783 C162.697731,31.041513 163.070915,30.7722957 163.070915,30.0967594 C163.070915,29.2990783 162.608818,29.0834551 162.14547,29.0834551" id="Fill-21" fill="#020303"></path>
                            <path d="M43.7747986,59.5273304 C43.7747986,59.5273304 44.2656977,58.5551565 44.1467298,57.6303449 L52.1952206,57.6552725 C52.1952206,57.6552725 52.3442436,60.548113 50.7863904,63.4970406 L43.7747986,59.5273304 Z M45.6269408,68.6370986 L41.8337436,61.6050406 C41.8337436,61.6050406 42.4774225,61.3856783 43.0647482,60.7437942 L48.8415784,66.1593014 C48.8415784,66.1593014 47.3450876,67.8680841 45.6269408,68.6370986 Z M36.8358399,69.9732145 L38.8407619,62.1958232 C38.8407619,62.1958232 39.9127252,62.4114464 40.7768078,62.0549826 L42.8693904,69.7899971 C42.8693904,69.7899971 40.1030739,70.6936203 36.8358399,69.9732145 Z M31.1642023,66.8398232 L36.3787528,60.7762 C36.3787528,60.7762 36.8170555,61.2946928 37.6310463,61.6075333 L34.648083,68.9275043 C34.648083,68.9275043 32.5054087,68.1559971 31.1642023,66.8398232 Z M28.9463904,64.0666348 C28.9463904,64.0666348 27.3334362,61.656142 27.1581151,58.3295623 L35.2228858,58.1750116 C35.2228858,58.1750116 35.300528,59.2606058 35.8778353,59.9947217 L28.9463904,64.0666348 Z M28.3740922,52.2347797 L35.5747803,55.7470696 C35.5747803,55.7470696 35.1803078,56.2979681 35.078872,57.1617072 L27.2119638,56.1135043 C27.2119638,56.1135043 27.4286106,53.8550696 28.3740922,52.2347797 Z M34.0920647,46.4129536 L37.3805876,53.7428957 C37.3805876,53.7428957 36.4075555,54.2377072 35.9529729,55.0528377 L29.4811197,50.2904319 C29.4811197,50.2904319 31.0828032,47.8699681 34.0920647,46.4129536 Z M41.097395,45.2064609 L40.141895,53.132171 C40.141895,53.132171 39.4881977,52.9427217 38.6366381,53.132171 L37.0362069,45.3946638 C37.0362069,45.3946638 39.2477573,44.8537362 41.097395,45.2064609 Z M44.215606,46.0066348 C44.215606,46.0066348 46.9819225,46.9077652 49.1872115,49.414229 L42.944528,54.4994464 C42.944528,54.4994464 42.2094317,53.694287 41.3002665,53.4724319 L44.215606,46.0066348 Z M50.2504087,51.2488957 C50.2504087,51.2488957 51.5578032,53.1059971 51.8959225,54.9506348 L44.1266931,56.9298812 C44.1266931,56.9298812 44.0678353,56.2543449 43.5819454,55.5326928 L50.2504087,51.2488957 Z M39.6459867,43.2708377 C31.687661,43.2708377 25.2370968,49.6909246 25.2370968,57.6104029 C25.2370968,65.5311275 31.687661,71.9512145 39.6459867,71.9512145 C47.6030601,71.9512145 54.0536243,65.5311275 54.0536243,57.6104029 C54.0536243,49.6909246 47.6030601,43.2708377 39.6459867,43.2708377 Z" id="Fill-23" fill="#878686"></path>
                            <path d="M39.6457362,71.9512145 C31.6886628,71.9512145 25.2368463,65.5311275 25.2368463,57.6104029 C25.2368463,49.6909246 31.6886628,43.2708377 39.6457362,43.2708377 C47.6028096,43.2708377 54.0546261,49.6909246 54.0546261,57.6104029 C54.0546261,65.5311275 47.6028096,71.9512145 39.6457362,71.9512145 M39.6457362,37.9724899 C28.7482775,37.9724899 19.9145986,46.7656783 19.9145986,57.6104029 C19.9145986,68.4563739 28.7482775,77.2495623 39.6457362,77.2495623 C50.543195,77.2495623 59.3768739,68.4563739 59.3768739,57.6104029 C59.3768739,46.7656783 50.543195,37.9724899 39.6457362,37.9724899" id="Fill-25" fill="#040505"></path>
                            <path d="M41.8331174,55.5037768 C41.8331174,55.9487333 41.4699523,56.3101826 41.0228835,56.3101826 C40.5758147,56.3101826 40.2139018,55.9487333 40.2139018,55.5037768 C40.2139018,55.0588203 40.5758147,54.697371 41.0228835,54.697371 C41.4699523,54.697371 41.8331174,55.0588203 41.8331174,55.5037768" id="Fill-27" fill="#565656"></path>
                            <path d="M42.9197326,58.4363768 C42.9197326,58.8813333 42.5565674,59.2427826 42.1094986,59.2427826 C41.6624298,59.2427826 41.300517,58.8813333 41.300517,58.4363768 C41.300517,57.9914203 41.6624298,57.629971 42.1094986,57.629971 C42.5565674,57.629971 42.9197326,57.9914203 42.9197326,58.4363768" id="Fill-29" fill="#565656"></path>
                            <path d="M38.7041367,55.6418754 C38.7041367,56.0868319 38.3409716,56.4482812 37.8939028,56.4482812 C37.4468339,56.4482812 37.0849211,56.0868319 37.0849211,55.6418754 C37.0849211,55.1969188 37.4468339,54.8354696 37.8939028,54.8354696 C38.3409716,54.8354696 38.7041367,55.1969188 38.7041367,55.6418754" id="Fill-31" fill="#565656"></path>
                            <path d="M38.1908216,58.7470986 C38.1908216,59.1920551 37.8276564,59.5535043 37.3805876,59.5535043 C36.9335188,59.5535043 36.571606,59.1920551 36.571606,58.7470986 C36.571606,58.302142 36.9335188,57.9406928 37.3805876,57.9406928 C37.8276564,57.9406928 38.1908216,58.302142 38.1908216,58.7470986" id="Fill-33" fill="#565656"></path>
                            <path d="M40.6865174,60.3152899 C40.6865174,60.7602464 40.3233523,61.1216957 39.8762835,61.1216957 C39.4292147,61.1216957 39.0673018,60.7602464 39.0673018,60.3152899 C39.0673018,59.8703333 39.4292147,59.5088841 39.8762835,59.5088841 C40.3233523,59.5088841 40.6865174,59.8703333 40.6865174,60.3152899" id="Fill-35" fill="#565656"></path>
                            <polygon id="Fill-37" fill="#F6E4E2" points="232.820912 75.4587681 234.045655 81.9374348 236.061848 81.9374348 236.061848 73.8484493"></polygon>
                            <path d="M236.061222,84.4000261 L224.099313,84.4000261 C224.099313,84.4000261 226.299593,80.9650116 229.129777,81.016113 C233.224777,81.092142 233.164667,79.4743449 233.164667,79.4743449 L236.061222,79.4743449 L236.061222,84.4000261 Z" id="Fill-39" fill="#221E1F"></path>
                            <polygon id="Fill-41" fill="#F6E4E2" points="264.020554 73.2156638 269.629577 76.7229681 270.998334 75.2497507 265.034912 69.7557217"></polygon>
                            <path d="M272.81441,76.922887 L264.688277,85.6599884 C264.688277,85.6599884 263.650126,81.7189449 265.611217,79.6873507 C268.448915,76.7471478 267.215406,75.692713 267.215406,75.692713 L269.182759,73.5776116 L272.81441,76.922887 Z" id="Fill-43" fill="#221E1F"></path>
                            <polygon id="Fill-45" fill="#F6E4E2" points="210.445431 44.9705217 206.385495 45.3469275 204.378069 46.5883188 206.723615 47.8297101 209.77295 47.3249275 211.392165 45.5525797"></polygon>
                            <path d="M227.044207,34.9735826 L211.75245,46.6296986 L210.445056,44.970771 L222.70501,32.5768 L224.200248,17.1117565 C224.485771,13.6754957 224.876487,12.7045681 225.88834,12.5026551 C229.526253,11.774771 232.323877,16.7004522 231.826716,21.9090609 C231.305762,27.3544812 227.044207,34.9735826 227.044207,34.9735826" id="Fill-47" fill="#F6E4E2"></path>
                            <path d="M222.259318,29.5114609 L232.409158,30.4774029 C232.409158,30.4774029 234.123548,15.9969971 229.917094,16.2674609 C225.711892,16.539171 223.099607,16.8407942 222.259318,29.5114609" id="Fill-49" fill="#AB2E39"></path>
                        </g>
                        <g id="Group-54" transform="translate(218.000000, 7.000000)">
                            <mask id="mask-4" fill="white">
                                <use xlink:href="#path-3"></use>
                            </mask>
                            <g id="Clip-53"></g>
                            <path d="M0.644,5.10584615 C5.18,8.22092308 6.67927273,14.6541538 6.67927273,14.6541538 L13.9910909,7.42830769 L3.38036364,0.175384615 L0.644,5.10584615 Z" id="Fill-52" fill="url(#linearGradient-5)" mask="url(#mask-4)"></path>
                        </g>
                        <g id="Group-90" transform="translate(181.000000, 5.000000)">
                            <path d="M40.2936183,3.2285 C40.9980972,5.1785 40.4503085,7.161 39.0701817,7.6585 C37.6888014,8.15475 35.9978014,6.976 35.2933225,5.026 C34.5888437,3.076 35.1366324,1.0935 36.5167592,0.59725 C37.8981394,0.101 39.5891394,1.2785 40.2936183,3.2285" id="Fill-55" fill="#F6E4E2"></path>
                            <polygon id="Fill-57" fill="#F6E4E2" points="35.0378549 2.663875 35.0203056 7.473875 36.2713197 6.676375"></polygon>
                            <path d="M32.6191859,6.658625 L39.9648197,2.044875 C39.9648197,2.044875 38.6711859,-0.943875 35.9635803,0.444875 C33.2559746,1.833625 34.5621437,4.472375 34.5621437,4.472375 C34.5621437,4.472375 32.1014817,5.822375 32.6191859,6.658625" id="Fill-59" fill="#AB2E39"></path>
                            <path d="M49.0024563,6.862875 L60.9560338,13.475375 L72.9885831,26.587875 L54.6282592,37.865375 C54.6282592,37.865375 51.5709211,32.375375 48.7141465,28.806625 C42.5230056,21.076625 38.3212028,16.429125 49.0024563,6.862875" id="Fill-61" fill="#AB2E39"></path>
                            <path d="M55.9014606,34.904375 C55.9014606,34.904375 48.1797704,59.268125 48.3577704,59.934375 C48.5357704,60.600625 48.3577704,72.933125 48.3577704,72.933125 L55.9014606,72.933125 L55.9779254,61.010625 C55.9779254,61.010625 76.2147704,37.258125 69.543531,25.985625 L55.9014606,34.904375 Z" id="Fill-63" fill="#AB2E39"></path>
                            <path d="M61.7609197,36.85175 C61.7609197,36.85175 71.9482859,61.338 72.5399479,61.69425 C73.1316099,62.05175 81.5853563,71.05425 81.5853563,71.05425 L87.0168634,65.83425 L78.774962,57.19675 C78.774962,57.19675 76.816962,26.0905 64.1701873,22.58925 L61.7609197,36.85175 Z" id="Fill-65" fill="#AB2E39"></path>
                            <path d="M55.9014606,30.51925 L37.4709394,44.948 L35.7460944,43.093 L47.5906155,28.74675 L47.1355873,14.52175 C47.1343338,11.06425 47.4439535,10.06175 48.4354887,9.77675 C50.6316577,9.14425 55.3436437,12.158 55.9014606,14.7055 C57.1976014,20.62675 55.9014606,30.51925 55.9014606,30.51925" id="Fill-67" fill="#F6E4E2"></path>
                            <path d="M46.6181338,25.232875 L58.7208803,25.985375 C58.7208803,25.985375 57.4460493,11.749125 53.3858944,10.601625 C50.1643451,9.690375 46.9390352,6.862875 45.8534859,14.039125 C45.5275704,16.192875 46.1204859,20.080375 46.6181338,25.232875" id="Fill-69" fill="#AB2E39"></path>
                            <path d="M26.5733282,65.2435 C26.5733282,65.2435 27.1198634,64.15975 26.9869901,63.1285 L35.9421451,63.156 C35.9421451,63.156 36.1088634,66.38225 34.3752437,69.6685 L26.5733282,65.2435 Z M28.6341169,75.3985 L24.4135113,67.55975 C24.4135113,67.55975 25.1292718,67.31475 25.7836099,66.59975 L32.2116662,72.63725 C32.2116662,72.63725 30.5457366,74.54225 28.6341169,75.3985 Z M18.8528915,76.8885 L21.0829056,68.2185 C21.0829056,68.2185 22.2762577,68.4585 23.2377085,68.061 L25.5654972,76.68475 C25.5654972,76.68475 22.4881028,77.69225 18.8528915,76.8885 Z M12.5414127,73.39475 L18.343962,66.636 C18.343962,66.636 18.8315817,67.2135 19.7378775,67.56225 L16.4173,75.72225 C16.4173,75.72225 14.0343563,74.86225 12.5414127,73.39475 Z M10.0744831,70.30475 C10.0744831,70.30475 8.27818732,67.616 8.08389155,63.9085 L17.0578493,63.736 C17.0578493,63.736 17.1443423,64.946 17.7861451,65.76475 L10.0744831,70.30475 Z M9.43644085,57.1135 L17.4502014,61.0285 C17.4502014,61.0285 17.0102155,61.6435 16.8973986,62.606 L8.14531408,61.43725 C8.14531408,61.43725 8.38473662,58.921 9.43644085,57.1135 Z M15.7993141,50.62225 L19.4595958,58.79475 C19.4595958,58.79475 18.3753,59.34725 17.870131,60.25475 L10.6699056,54.946 C10.6699056,54.946 12.4511592,52.2485 15.7993141,50.62225 Z M23.594962,49.2785 L22.5307225,58.1135 C22.5307225,58.1135 21.8036803,57.9035 20.8560183,58.1135 L19.0747648,49.4885 C19.0747648,49.4885 21.5366803,48.88475 23.594962,49.2785 Z M27.0634549,50.16975 C27.0634549,50.16975 30.1421028,51.17475 32.5952437,53.9685 L25.6507366,59.6385 C25.6507366,59.6385 24.8321873,58.741 23.8193423,58.4935 L27.0634549,50.16975 Z M33.7785676,56.01475 C33.7785676,56.01475 35.2339056,58.08475 35.609962,60.141 L26.9644268,62.34725 C26.9644268,62.34725 26.8992437,61.59475 26.3589761,60.78975 L33.7785676,56.01475 Z M21.9791732,47.11975 C13.1243,47.11975 5.94663803,54.27725 5.94663803,63.10725 C5.94663803,71.936 13.1243,79.0935 21.9791732,79.0935 C30.832793,79.0935 38.0104549,71.936 38.0104549,63.10725 C38.0104549,54.27725 30.832793,47.11975 21.9791732,47.11975 Z" id="Fill-71" fill="#878686"></path>
                            <g id="Group-75" transform="translate(0.000000, 41.000000)">
                                <mask id="mask-7" fill="white">
                                    <use xlink:href="#path-6"></use>
                                </mask>
                                <g id="Clip-74"></g>
                                <path d="M21.9790479,38.094 C13.1241746,38.094 5.94651268,30.9365 5.94651268,22.1065 C5.94651268,13.27775 13.1241746,6.12025 21.9790479,6.12025 C30.8326676,6.12025 38.0103296,13.27775 38.0103296,22.1065 C38.0103296,30.9365 30.8326676,38.094 21.9790479,38.094 M21.9790479,0.214 C9.85373803,0.214 0.0248788732,10.0165 0.0248788732,22.1065 C0.0248788732,34.19775 9.85373803,44.00025 21.9790479,44.00025 C34.1043577,44.00025 43.9332169,34.19775 43.9332169,22.1065 C43.9332169,10.0165 34.1043577,0.214 21.9790479,0.214" id="Fill-73" fill="#040505" mask="url(#mask-7)"></path>
                            </g>
                            <path d="M24.4128845,60.757875 C24.4128845,61.254125 24.0092507,61.656625 23.5116028,61.656625 C23.0139549,61.656625 22.6103211,61.254125 22.6103211,60.757875 C22.6103211,60.261625 23.0139549,59.859125 23.5116028,59.859125 C24.0092507,59.859125 24.4128845,60.261625 24.4128845,60.757875" id="Fill-76" fill="#565656"></path>
                            <path d="M25.6219056,64.027125 C25.6219056,64.523375 25.2182718,64.925875 24.7206239,64.925875 C24.2229761,64.925875 23.8193423,64.523375 23.8193423,64.027125 C23.8193423,63.530875 24.2229761,63.128375 24.7206239,63.128375 C25.2182718,63.128375 25.6219056,63.530875 25.6219056,64.027125" id="Fill-78" fill="#565656"></path>
                            <path d="M20.9312296,60.911875 C20.9312296,61.408125 20.5275958,61.810625 20.0299479,61.810625 C19.5323,61.810625 19.1286662,61.408125 19.1286662,60.911875 C19.1286662,60.415625 19.5323,60.013125 20.0299479,60.013125 C20.5275958,60.013125 20.9312296,60.415625 20.9312296,60.911875" id="Fill-80" fill="#565656"></path>
                            <path d="M20.3601254,64.373625 C20.3601254,64.869875 19.9564915,65.272375 19.4588437,65.272375 C18.9611958,65.272375 18.557562,64.869875 18.557562,64.373625 C18.557562,63.877375 18.9611958,63.474875 19.4588437,63.474875 C19.9564915,63.474875 20.3601254,63.877375 20.3601254,64.373625" id="Fill-82" fill="#565656"></path>
                            <path d="M23.1369254,66.121875 C23.1369254,66.618125 22.7332915,67.020625 22.2356437,67.020625 C21.7379958,67.020625 21.334362,66.618125 21.334362,66.121875 C21.334362,65.625625 21.7379958,65.223125 22.2356437,65.223125 C22.7332915,65.223125 23.1369254,65.625625 23.1369254,66.121875" id="Fill-84" fill="#565656"></path>
                            <polygon id="Fill-86" fill="#F6E4E2" points="30.4526 41.765 28.9634169 42.56 26.2507972 42.96875 25.9486986 42.02875 30.0238958 40.47875"></polygon>
                            <polygon id="Fill-88" fill="#F6E4E2" points="35.7463451 43.09275 32.9296831 42.549 29.3596549 43.8215 29.3596549 44.949 29.8861338 46.23025 35.5395141 46.794 37.4711901 44.949"></polygon>
                        </g>
                    </g>
                </g>
            </g>
        </g>
    </g>
</svg>