<?xml version="1.0" encoding="UTF-8"?>
<svg width="177px" height="139px" viewBox="0 0 177 139" version="1.1" xmlns="http://www.w3.org/2000/svg" xmlns:xlink="http://www.w3.org/1999/xlink">
    <!-- Generator: Sketch 50.2 (55047) - http://www.bohemiancoding.com/sketch -->
    <title>complete</title>
    <desc>Created with Sketch.</desc>
    <defs>
        <linearGradient x1="49.9548329%" y1="14.9676375%" x2="49.9548329%" y2="58.3333333%" id="linearGradient-1">
            <stop stop-color="#E5B8B1" offset="0%"></stop>
            <stop stop-color="#F7E5E3" offset="100%"></stop>
        </linearGradient>
    </defs>
    <g id="Revise" stroke="none" stroke-width="1" fill="none" fill-rule="evenodd">
        <g id="Flash-Message" transform="translate(-1076.000000, -465.000000)" fill-rule="nonzero">
            <g id="Group-12" transform="translate(66.000000, 201.000000)">
                <g id="Group-8" transform="translate(900.000000, 164.000000)">
                    <g id="complete" transform="translate(110.000000, 100.000000)">
                        <g id="Group" transform="translate(0.000000, 15.000000)">
                            <path d="M29.84,0.86 L146.94,0.86 C149.618693,0.870587678 152.183466,1.94485922 154.070086,3.84648267 C155.956707,5.74810612 157.01063,8.3213071 157,11 L157.00008,66 L19.7399207,66 L19.74,11 C19.7293638,8.31438965 20.7887706,5.73512711 22.6840421,3.83234962 C24.5793136,1.92957213 27.1543686,0.859978938 29.84,0.86 Z" id="Shape" fill="#D8D9D8"></path>
                            <rect id="Rectangle-path" fill="#B0B0B0" x="19.74" y="65.96" width="137.3" height="26.83"></rect>
                            <path d="M0,39.13 L19.74,39.13 L19.74,92.78 L8.56,92.78 C3.83244254,92.78 5.78958811e-16,88.9475575 0,84.22 L0,39.13 Z" id="Shape" fill="#D8D9D8"></path>
                            <polygon id="Shape" fill="#FFFFFF" points="19.74 24.16 33.76 24.16 19.74 39.13 0 39.13"></polygon>
                            <polygon id="Shape" fill="#B0B0B0" points="19.74 65.96 33.76 46.95 33.76 24.16 19.74 39.13"></polygon>
                            <polygon id="Shape" fill="#B0B0B0" points="157.09 65.96 143.07 46.95 143.07 24.16 157.09 39.13"></polygon>
                            <path d="M165.600006,39.14 L176.780006,39.14 L176.780006,92.79 L157.04,92.79 L157.040006,47.71 C157.037352,45.4380147 157.938034,43.2581753 159.543634,41.6507005 C161.149233,40.0432256 163.328019,39.1399984 165.600006,39.14 Z" id="Shape" fill="#D8D9D8" transform="translate(166.910003, 65.965000) rotate(-180.000000) translate(-166.910003, -65.965000) "></path>
                            <polygon id="Shape" fill="#FFFFFF" points="157.09 24.16 143.07 24.16 157.09 39.13 176.83 39.13"></polygon>
                            <polygon id="Shape" fill="#FFFFFF" points="143.07 46.95 33.76 46.95 19.74 65.96 157.04 65.96"></polygon>
                            <polygon id="Shape" fill="#010101" points="19.74 92.78 16.72 92.78 18.37 106.88 19.74 106.88 21.12 106.88 22.76 92.78"></polygon>
                            <polygon id="Shape" fill="#010101" points="156.94 92.78 153.92 92.78 155.56 106.88 156.94 106.88 158.31 106.88 159.95 92.78"></polygon>
                            <path d="M40.46,28.26 C49.6837252,25.5928112 59.1392432,23.8048343 68.7,22.92 C69.9535523,22.7945431 71.1519439,23.4656424 71.7,24.6 C75.552942,33.0598581 78.276303,41.9897923 79.8,51.16 C80.0117271,52.5138978 79.2791186,53.8391784 78.02,54.38 C68.3699778,58.2519401 58.0960167,60.3358735 47.7,60.53 C46.3490844,60.5466789 45.1536788,59.6583125 44.78,58.36 C43.51,53.74 40.52,42.51 38.45,31.63 C38.1906439,30.1634767 39.0463978,28.7287054 40.46,28.26 Z" id="Shape" fill="#AB2F3A"></path>
                            <path d="M149.09,26.05 C141.737466,24.1242555 134.254288,22.7372441 126.7,21.9 C123.838733,21.5760462 121.107725,23.1820422 120,25.84 C117.138584,32.6281216 114.980636,39.6917162 113.56,46.92 C112.946833,50.0552894 114.71384,53.1687894 117.72,54.25 C125.59738,57.0418837 133.8347,58.6886743 142.18,59.14 C145.245804,59.316001 148.014162,57.3159356 148.81,54.35 C150.11,49.49 152.11,41.66 153.75,33.63 C154.456318,30.2667017 152.409944,26.9380502 149.09,26.05 Z" id="Shape" fill="#575757"></path>
                        </g>
                        <polygon id="Shape" fill="#F7E5E3" points="78.61 122.67 80.7 133.78 84.14 133.78 84.14 119.91"></polygon>
                        <path d="M129.7,16.65 L123.09,14.13 L114.18,14.13 L103.82,17.94 C97.11,20.5 95.17,26 93.82,34.4 L87.4,67.84 L122.35,67.84 L135.25,26.75 C136.06,19.66 136.45,19.2 129.7,16.65 Z" id="Shape" fill="#AB2F3A"></path>
                        <path d="M84.65,138.01 L63.7,138.01 C63.7,138.01 67.46,132.12 72.29,132.21 C79.29,132.34 79.18,129.57 79.18,129.57 L84.65,129.57 L84.65,138.02 L84.65,138.01 Z" id="Shape" fill="#231F20"></path>
                        <path d="M92.14,53.25 L117.3,33.02 L112.88,27.07 L89.18,43.46 C89.18,43.46 85.66,46.03 85.69,50.21 C85.7353327,51.7144455 86.6213509,53.0660894 87.9828362,53.7077817 C89.3443215,54.349474 90.9507698,54.1725739 92.14,53.25 Z" id="Shape" fill="#AB2F3A"></path>
                        <path d="M115,19.74 L116.44,28.26 C116.487504,28.7650453 116.934847,29.13634 117.44,29.09 L121.61,28.45 C121.876729,28.3953591 122.109647,28.2343219 122.254966,28.0040769 C122.400285,27.7738319 122.445438,27.4942878 122.38,27.23 L121.02,18.39 C121.000766,18.1338378 120.875309,17.8973834 120.673978,17.7378379 C120.472646,17.5782924 120.21378,17.510188 119.96,17.55 L115.71,18.55 C115.192315,18.6918306 114.878938,19.2170681 115,19.74 Z" id="Shape" fill="#010101"></path>
                        <path d="M114.23,28.45 L115.96,25.63 C116.523166,24.7124012 117.315925,23.9575567 118.26,23.44 C118.897487,23.0917175 119.604687,22.8901482 120.33,22.85 L120.97,22.85 L121.19,23.5 L119.73,23.64 L118.18,24.64 L119,24.27 C119.594192,23.9982888 120.236897,23.8486644 120.89,23.83 L121.43,23.83 L121.49,24.49 L120.24,24.6 L118.8,25.49 L119.51,25.22 C119.911615,25.065318 120.331928,24.964443 120.76,24.92 L121.69,24.82 L121.8,25.39 L120.38,25.65 L119.38,26.27 L119.76,26.14 C120.223678,25.9780485 120.709148,25.8870229 121.2,25.87 L121.63,25.87 L121.71,26.35 L120.71,26.54 L119.78,27.03 L119.5,27.68 C119.17842,28.4192465 118.663741,29.0582776 118.01,29.53 L115.78,31.14 L114.23,28.45 Z" id="Shape" fill="#F7E5E3"></path>
                        <path d="M105.49,17.34 C105.49,17.34 88.92,20.84 85.7,49.84 L98.28,41.28 L103.54,23.86 L105.49,17.34 Z" id="Shape" fill="#AB2F3A"></path>
                        <path d="M134.54,72.12 L122.34,67.88 L104.87,67.83 L87.4,67.88 L71.55,84.01 C71.55,84.01 68.55,87.44 70.39,94.48 C72.67,103.22 77.33,123.37 77.33,123.37 L85.17,123.37 L83.07,92.73 C82.9771112,91.3610591 83.532564,90.0279722 84.57,89.13 L94.81,80.06 C97.6011813,77.6361966 101.17331,76.3010868 104.87,76.3 C108.56669,76.3010868 112.138819,77.6361966 114.93,80.06" id="Shape" fill="#231F20"></path>
                        <polygon id="Shape" fill="#F7E5E3" points="81.32 84.15 70.03 83.24 69.67 79.82 83.49 78.34"></polygon>
                        <path d="M65.83,78.3 L64.76,99.16 C64.76,99.16 70.85,95.71 71.01,90.87 C71.24,83.87 74.01,84.12 74.01,84.12 L74.29,78.74 L65.83,78.3 Z" id="Shape" fill="#231F20"></path>
                        <path d="M81.19,75.51 L80.63,87.51 C80.63,87.51 118.47,86.69 133.32,86.71 C142.64,86.71 144.14,71.87 131.75,71.79 C123.04,71.76 81.19,75.51 81.19,75.51 Z" id="Shape" fill="#231F20"></path>
                        <path d="M123.14,14.13 C123.14,14.13 146.48,21.45 162.54,38.37 L150.33,41.01 C150.33,41.01 132.86,30.23 128.26,27.72 C124.39,25.6 121.7,17.7 123.14,14.13 Z" id="Shape" fill="#AB2F3A"></path>
                        <path d="M118.19,7.2 L114.26,7.2 C114.26,7.2 114.36,15.62 112.66,17.41 C112.66,17.41 113.86,19.56 118.12,19.56 C122.8,19.56 123.73,17.41 123.73,17.41 C121.85,15.41 122.13,7.2 122.13,7.2 L118.2,7.2 L118.19,7.2 Z" id="Shape" fill="url(#linearGradient-1)"></path>
                        <ellipse id="Oval" fill="#F7E5E3" cx="118.19" cy="5.99" rx="4.34" ry="5.66"></ellipse>
                        <path d="M114.24,5.67 C114.24,5.67 113.67,4.73 113.14,5.17 C112.61,5.61 113.08,7.09 113.91,7.17 L114.24,5.67 Z" id="Shape" fill="#F7E5E3"></path>
                        <path d="M122.16,5.67 C122.16,5.67 122.73,4.73 123.26,5.17 C123.79,5.61 123.32,7.09 122.49,7.17 L122.16,5.67 Z" id="Shape" fill="#F7E5E3"></path>
                        <path d="M118.19,1.13883805e-13 L114.53,1.13883805e-13 C114.282384,-0.000382435505 114.045549,0.101271097 113.875253,0.281028743 C113.704956,0.46078639 113.616243,0.702766234 113.63,0.95 L113.92,7.21 L114.75,5.06 L114.75,3.06 L121.64,3.06 L121.64,5.06 L122.47,7.21 L122.76,0.95 C122.773757,0.702766234 122.685044,0.46078639 122.514747,0.281028743 C122.344451,0.101271097 122.107616,-0.000382435505 121.86,3.41257481e-13 L118.2,3.41257481e-13 L118.19,1.13883805e-13 Z" id="Shape" fill="#010101"></path>
                        <path d="M117.86,8.6 C117.841435,8.6 117.82363,8.59262502 117.810503,8.57949747 C117.797375,8.56636993 117.79,8.54856515 117.79,8.53 C117.787079,8.50977354 117.793144,8.48928082 117.806601,8.47390099 C117.820058,8.45852116 117.839565,8.44979024 117.86,8.45 C118.527697,8.40648799 119.163064,8.14672465 119.67,7.71 C119.683166,7.69656228 119.701187,7.68898979 119.72,7.68898979 C119.738813,7.68898979 119.756834,7.69656228 119.77,7.71 C119.783438,7.72316623 119.79101,7.74118719 119.79101,7.76 C119.79101,7.77881281 119.783438,7.79683377 119.77,7.81 C119.239475,8.2793294 118.567048,8.55745405 117.86,8.6 Z" id="Shape" fill="#010101"></path>
                        <path d="M118.49,7.16 L117.12,7.16 L117.12,7.1 C117.235457,6.32742204 117.58439,5.60862038 118.12,5.04 L118.12,4.41 C118.12,4.39143485 118.127375,4.37363007 118.140503,4.36050253 C118.15363,4.34737498 118.171435,4.34 118.19,4.34 C118.208565,4.34 118.22637,4.34737498 118.239497,4.36050253 C118.252625,4.37363007 118.26,4.39143485 118.26,4.41 L118.26,5.09 C117.763438,5.62689936 117.418347,6.28602468 117.26,7 L118.5,7 C118.518565,7 118.53637,7.00737498 118.549497,7.02050253 C118.562625,7.03363007 118.57,7.05143485 118.57,7.07 C118.577513,7.09354663 118.572051,7.11930989 118.555631,7.13778293 C118.53921,7.15625598 118.514265,7.16470035 118.49,7.16 Z" id="Shape" fill="#010101"></path>
                        <path d="M138.7,51.41 L135.38,54.87 L133.46,57.87 C132.95923,58.6454516 132.669675,59.5382473 132.62,60.46 L132.62,61.35 C132.606063,61.6442147 132.657283,61.9378761 132.77,62.21 L133.26,63.41 L133.89,63.2 L133.44,61.95 L133.66,60.13 L133.66,61.62 C133.665006,61.885405 133.722795,62.1471584 133.83,62.39 L134.29,63.39 L134.91,63.16 L134.47,61.98 L134.65,60.3 L134.74,61.44 C134.754241,61.6140738 134.791222,61.7855323 134.85,61.95 L135.29,63.19 L135.85,63.04 L135.47,61.65 L135.61,60.51 L135.7,61.35 C135.720597,61.5497678 135.771164,61.7452942 135.85,61.93 L136.2,62.73 L136.67,62.59 L136.4,61.59 L136.4,60.43 C137.103315,59.8478957 137.57219,59.030916 137.72,58.13 L137.79,57.69 L141.29,54.84 L138.7,51.41 Z" id="Shape" fill="#F7E5E3"></path>
                        <circle id="Oval" fill="#D8D9D8" cx="115.72" cy="20.18" r="1"></circle>
                        <path d="M162.37,41.29 L139.96,57.52 L135.83,52.38 C135.83,52.38 146.27,43.11 149.6,40.29 C155.25,35.5 158.05,34.36 162.54,38.37 C162.960364,38.7519957 163.185487,39.3035646 163.152474,39.8706064 C163.119462,40.4376482 162.831852,40.9593662 162.37,41.29 Z" id="Shape" fill="#AB2F3A"></path>
                    </g>
                </g>
            </g>
        </g>
    </g>
</svg>