<svg id="el_-YGwM0asK" data-name="Layer 1" xmlns="http://www.w3.org/2000/svg" xmlns:xlink="http://www.w3.org/1999/xlink" viewBox="0 0 277 119"><style>@-webkit-keyframes el_5AZOUh1s8v_EXSAw4U5a_Animation{0%{-webkit-transform: scale(1, 1);transform: scale(1, 1);}33.33%{-webkit-transform: scale(0.9, 0.8);transform: scale(0.9, 0.8);}66.67%{-webkit-transform: scale(0.9, 0.9);transform: scale(0.9, 0.9);}83.33%{-webkit-transform: scale(1, 0.9);transform: scale(1, 0.9);}100%{-webkit-transform: scale(1, 1);transform: scale(1, 1);}}@keyframes el_5AZOUh1s8v_EXSAw4U5a_Animation{0%{-webkit-transform: scale(1, 1);transform: scale(1, 1);}33.33%{-webkit-transform: scale(0.9, 0.8);transform: scale(0.9, 0.8);}66.67%{-webkit-transform: scale(0.9, 0.9);transform: scale(0.9, 0.9);}83.33%{-webkit-transform: scale(1, 0.9);transform: scale(1, 0.9);}100%{-webkit-transform: scale(1, 1);transform: scale(1, 1);}}@-webkit-keyframes el_5AZOUh1s8v_IV9ttensJ_Animation{0%{-webkit-transform: translate(0px, 0px);transform: translate(0px, 0px);}33.33%{-webkit-transform: translate(4px, 2px);transform: translate(4px, 2px);}54.44%{-webkit-transform: translate(-3px, -1px);transform: translate(-3px, -1px);}66.67%{-webkit-transform: translate(0px, -3px);transform: translate(0px, -3px);}100%{-webkit-transform: translate(0px, 0px);transform: translate(0px, 0px);}}@keyframes el_5AZOUh1s8v_IV9ttensJ_Animation{0%{-webkit-transform: translate(0px, 0px);transform: translate(0px, 0px);}33.33%{-webkit-transform: translate(4px, 2px);transform: translate(4px, 2px);}54.44%{-webkit-transform: translate(-3px, -1px);transform: translate(-3px, -1px);}66.67%{-webkit-transform: translate(0px, -3px);transform: translate(0px, -3px);}100%{-webkit-transform: translate(0px, 0px);transform: translate(0px, 0px);}}@-webkit-keyframes el_VD3rDARIkJ_Wx6kiKcJ3_Animation{0%{-webkit-transform: rotate(0deg);transform: rotate(0deg);}51.11%{-webkit-transform: rotate(360deg);transform: rotate(360deg);}100%{-webkit-transform: rotate(720deg);transform: rotate(720deg);}}@keyframes el_VD3rDARIkJ_Wx6kiKcJ3_Animation{0%{-webkit-transform: rotate(0deg);transform: rotate(0deg);}51.11%{-webkit-transform: rotate(360deg);transform: rotate(360deg);}100%{-webkit-transform: rotate(720deg);transform: rotate(720deg);}}@-webkit-keyframes el_aVGeZxqBcLS_rSQ-lD4Y1_Animation{0%{-webkit-transform: rotate(0deg);transform: rotate(0deg);}51.11%{-webkit-transform: rotate(360deg);transform: rotate(360deg);}100%{-webkit-transform: rotate(720deg);transform: rotate(720deg);}}@keyframes el_aVGeZxqBcLS_rSQ-lD4Y1_Animation{0%{-webkit-transform: rotate(0deg);transform: rotate(0deg);}51.11%{-webkit-transform: rotate(360deg);transform: rotate(360deg);}100%{-webkit-transform: rotate(720deg);transform: rotate(720deg);}}@-webkit-keyframes el_iHcTMm8-fi_SjATT8pDp_Animation{0%{-webkit-transform: translate(0px, 0px);transform: translate(0px, 0px);}33.33%{-webkit-transform: translate(0px, 3px);transform: translate(0px, 3px);}66.67%{-webkit-transform: translate(0px, -2px);transform: translate(0px, -2px);}100%{-webkit-transform: translate(0px, 0px);transform: translate(0px, 0px);}}@keyframes el_iHcTMm8-fi_SjATT8pDp_Animation{0%{-webkit-transform: translate(0px, 0px);transform: translate(0px, 0px);}33.33%{-webkit-transform: translate(0px, 3px);transform: translate(0px, 3px);}66.67%{-webkit-transform: translate(0px, -2px);transform: translate(0px, -2px);}100%{-webkit-transform: translate(0px, 0px);transform: translate(0px, 0px);}}#el_-YGwM0asK *{-webkit-animation-duration: 3s;animation-duration: 3s;-webkit-animation-iteration-count: infinite;animation-iteration-count: infinite;-webkit-animation-timing-function: cubic-bezier(0, 0, 1, 1);animation-timing-function: cubic-bezier(0, 0, 1, 1);}#el_5AZOUh1s8v{fill: #e7e7e7;}#el_lrHxOU5Kxm{fill-rule: evenodd;fill: url(#GradientFill_3);-webkit-transform: translate(-167.7px, -340.57px);transform: translate(-167.7px, -340.57px);}#el_xiBZFCrJyy{fill-rule: evenodd;fill: #ccc;}#el_SfAl0wT_6I{fill-rule: evenodd;fill: #414142;-webkit-transform: translate(-167.7px, -340.57px);transform: translate(-167.7px, -340.57px);}#el_jXbjd4UEjf{fill-rule: evenodd;fill: #c9c9c9;-webkit-transform: translate(-167.7px, -340.57px);transform: translate(-167.7px, -340.57px);}#el_gzv2TXFHU3{fill-rule: evenodd;fill: url(#GradientFill_4);-webkit-transform: translate(-167.7px, -340.57px);transform: translate(-167.7px, -340.57px);}#el_Ozj07IOb8U{fill-rule: evenodd;fill: #941f2f;-webkit-transform: translate(-167.7px, -340.57px);transform: translate(-167.7px, -340.57px);}#el_e9fZx4ywmx{fill-rule: evenodd;fill: #841525;-webkit-transform: translate(-167.7px, -340.57px);transform: translate(-167.7px, -340.57px);}#el_FUY-cw3Lrx{fill-rule: evenodd;fill: #c9c9c9;-webkit-transform: translate(-167.7px, -340.57px);transform: translate(-167.7px, -340.57px);}#el_l1CTcBXdK-{fill-rule: evenodd;fill: #841525;-webkit-transform: translate(-167.7px, -340.57px);transform: translate(-167.7px, -340.57px);}#el_rKfB7dIJpF{fill-rule: evenodd;fill: #fff;-webkit-transform: translate(-167.7px, -340.57px);transform: translate(-167.7px, -340.57px);}#el_vJ13JuP_Xh{fill-rule: evenodd;fill: #841525;-webkit-transform: translate(-167.7px, -340.57px);transform: translate(-167.7px, -340.57px);}#el_IbkXBe4ukP{fill-rule: evenodd;fill: #841525;-webkit-transform: translate(-167.7px, -340.57px);transform: translate(-167.7px, -340.57px);}#el_qoUmUsCPEdL{fill-rule: evenodd;fill: #363738;-webkit-transform: translate(-167.7px, -340.57px);transform: translate(-167.7px, -340.57px);}#el_i23lSlcZ0K9{fill: #fff;-webkit-transform: translate(-169.84px, -338.6px) rotate(-0.28deg);transform: translate(-169.84px, -338.6px) rotate(-0.28deg);}#el_R__JyM_zAE-{fill: #535559;-webkit-transform: translate(-169.85px, -338.59px) rotate(-0.28deg);transform: translate(-169.85px, -338.59px) rotate(-0.28deg);}#el_D19LqUjFqm8{fill: #6a6c70;-webkit-transform: translate(-358.83px, 70.33px) rotate(-45.29deg);transform: translate(-358.83px, 70.33px) rotate(-45.29deg);}#el_jxcGqA23kwn{fill-rule: evenodd;fill: #fff;-webkit-transform: translate(-167.7px, -340.57px);transform: translate(-167.7px, -340.57px);}#el_B0MmXpsrLyd{fill-rule: evenodd;fill: #363738;-webkit-transform: translate(-167.7px, -340.57px);transform: translate(-167.7px, -340.57px);}#el_DCRY_g1VSHX{fill: #fff;-webkit-transform: translate(-169.84px, -339.51px) rotate(-0.28deg);transform: translate(-169.84px, -339.51px) rotate(-0.28deg);}#el_RKKdt55DCgU{fill: #535559;-webkit-transform: translate(-169.85px, -339.5px) rotate(-0.28deg);transform: translate(-169.85px, -339.5px) rotate(-0.28deg);}#el_nNFU5vRp30X{fill: #6a6c70;-webkit-transform: translate(-413.42px, -60.56px) rotate(-45.29deg);transform: translate(-413.42px, -60.56px) rotate(-45.29deg);}#el_0XYU9IchpsO{fill-rule: evenodd;fill: #fff;-webkit-transform: translate(-167.7px, -340.57px);transform: translate(-167.7px, -340.57px);}#el_iHcTMm8-fi_SjATT8pDp{-webkit-animation-name: el_iHcTMm8-fi_SjATT8pDp_Animation;animation-name: el_iHcTMm8-fi_SjATT8pDp_Animation;-webkit-transform-origin: 50% 50%;transform-origin: 50% 50%;transform-box: fill-box;-webkit-transform: translate(0px, 0px);transform: translate(0px, 0px);-webkit-animation-timing-function: cubic-bezier(0.42, 0, 0.58, 1);animation-timing-function: cubic-bezier(0.42, 0, 0.58, 1);}#el_aVGeZxqBcLS_rSQ-lD4Y1{-webkit-animation-name: el_aVGeZxqBcLS_rSQ-lD4Y1_Animation;animation-name: el_aVGeZxqBcLS_rSQ-lD4Y1_Animation;-webkit-transform-origin: 50% 50%;transform-origin: 50% 50%;transform-box: fill-box;-webkit-transform: rotate(0deg);transform: rotate(0deg);}#el_VD3rDARIkJ_Wx6kiKcJ3{-webkit-animation-name: el_VD3rDARIkJ_Wx6kiKcJ3_Animation;animation-name: el_VD3rDARIkJ_Wx6kiKcJ3_Animation;-webkit-transform-origin: 50% 50%;transform-origin: 50% 50%;transform-box: fill-box;-webkit-transform: rotate(0deg);transform: rotate(0deg);}#el_5AZOUh1s8v_IV9ttensJ{-webkit-animation-name: el_5AZOUh1s8v_IV9ttensJ_Animation;animation-name: el_5AZOUh1s8v_IV9ttensJ_Animation;-webkit-transform-origin: 50% 50%;transform-origin: 50% 50%;transform-box: fill-box;-webkit-transform: translate(0px, 0px);transform: translate(0px, 0px);}#el_5AZOUh1s8v_EXSAw4U5a{-webkit-animation-name: el_5AZOUh1s8v_EXSAw4U5a_Animation;animation-name: el_5AZOUh1s8v_EXSAw4U5a_Animation;-webkit-transform-origin: 50% 50%;transform-origin: 50% 50%;transform-box: fill-box;-webkit-transform: scale(1, 1);transform: scale(1, 1);}</style>
  <defs>

    <linearGradient id="GradientFill_3" data-name="GradientFill 3" x1="411.21" y1="397.65" x2="426.74" y2="397.65" gradientUnits="userSpaceOnUse">
      <stop offset="0" stop-color="#6a8991"/>
      <stop offset="0.53" stop-color="#355d65"/>
      <stop offset="1" stop-color="#03383d"/>
    </linearGradient>
    <linearGradient id="GradientFill_4" data-name="GradientFill 4" x1="180.37" y1="379.32" x2="197.3" y2="379.32" gradientUnits="userSpaceOnUse">
      <stop offset="0" stop-color="#bc372e"/>
      <stop offset="0.13" stop-color="#dd4e2f"/>
      <stop offset="0.21" stop-color="#bf4b2b"/>
      <stop offset="0.33" stop-color="#d45b38"/>
      <stop offset="0.46" stop-color="#ec6b4e"/>
      <stop offset="0.62" stop-color="#ee5f3d"/>
      <stop offset="0.91" stop-color="#ed502b"/>
      <stop offset="1" stop-color="#bc4d27"/>
    </linearGradient>
  </defs>
  <title>tireshousecar</title>
  <g id="el_5AZOUh1s8v_IV9ttensJ" data-animator-group="true" data-animator-type="0"><g id="el_5AZOUh1s8v_EXSAw4U5a" data-animator-group="true" data-animator-type="2"><ellipse cx="138.63" cy="113.83" rx="138.63" ry="5.17" id="el_5AZOUh1s8v"/></g></g>
  <g id="el_iHcTMm8-fi_SjATT8pDp" data-animator-group="true" data-animator-type="0"><g id="el_iHcTMm8-fi">
    <path d="M411.89,389.18s6.87,7.73,8.47,16.93C420.36,406.11,405.75,399.86,411.89,389.18Z" id="el_lrHxOU5Kxm"/>
    <polygon points="243.94 49.84 249.22 57.08 247.13 55.37 247.87 57.45 248.98 58.19 249.72 59.41 249.72 60.76 249.22 60.76 250.44 61.5 250.44 62.24 250.2 62.6 248.61 62.6 247.5 61.38 245.66 60.03 243.82 58.06 243.82 56.1 243.21 53.89 243.94 49.84" id="el_xiBZFCrJyy"/>
    <path d="M424.13,439.67l6.32-.37-8.88-28.87-32.3-13.51L359.46,398l-130,.55-36.72,5.8-6.2,35.3H424.13Z" id="el_SfAl0wT_6I"/>
    <path d="M331.18,346.58l-6.29,1.5-3,1.93s17.46,3.54,35.4,29.22l25.4-3S366.79,357.9,331.18,346.58Z" id="el_jXbjd4UEjf"/>
    <path d="M193.69,367.6l-1.5-.83c-2.74-.14-12.16,21.83-8.16,25.1C184,391.87,197,378.92,193.69,367.6Z" id="el_gzv2TXFHU3"/>
    <path d="M201,352.42c1.62-3.06-7.28-3.55-5.6-5.85,0,0,84.16-13.52,135.79,0l-6.29,1.5s22.42,8.48,33.19,29.46l24.85-2.76c21.68,4.9,45.34,8.75,52.5,32.67l-0.27,20.43,2.21,2.21-0.55,7.73-2.76.82s-5.92,1.75-9,1.75c0,0,1.57-30.86-26.93-30.54-27.05-.83-26.78,27.86-26.78,27.86h-132s2.63-29.12-28.55-27.86c-26.14,1-22.52,31.18-22.52,31.18l-3.87-1.11s-3.87-24-4.69-31.47c0,0,2.76-5,2.76-9.66C182.5,398.8,188.85,365.12,201,352.42Z" id="el_Ozj07IOb8U"/>
    <path d="M438.25,421.89l-1.45,15.93-2.76.82s-5.92,1.75-9,1.75c0,0,1.57-30.86-26.93-30.54-27.05-.83-26.78,27.86-26.78,27.86h-132s2.63-29.12-28.55-27.86c-26.14,1-22.52,31.18-22.52,31.18l-6.46-1.61s-1.4-8.94-2.72-17.49a53.91,53.91,0,0,1,6-.89c4.43-14,16.05-21.26,28.24-22,21.75-1.33,31.34,21,33.61,33.32l115.92-.58c7.6-43.22,50.94-40.38,67.24-10.66C430.17,421.13,435.81,421.56,438.25,421.89Z" id="el_e9fZx4ywmx"/>
    <path d="M220.7,351.85c-8.24.71-10.47,19-11.74,27h66.86l3.36-31.56c-10.83.14-48.69,0.85-58.48,4.58h0Zm129.91,27c-3.86-7-19.06-30.18-51.77-31.35-5.72-.2-11.41-0.27-17-0.23l-2.22,31.58h70.94Z" id="el_FUY-cw3Lrx"/>
    <path d="M337.65,370.66s-3.31,6.07,1.11,11C338.75,381.7,354.21,375.63,337.65,370.66Z" id="el_l1CTcBXdK-"/>
    <path d="M431.71,403.87c-3.59-9.54-9.31-13.29-17.34-17.3-7.74-.77-7.91,4.88-4.78,10.12S426.54,412.48,431.71,403.87Z" id="el_rKfB7dIJpF"/>
    <path d="M280.51,387.5v-1a1.48,1.48,0,0,1,1.23-1.64l14.66-.08a1.48,1.48,0,0,1,1.25,1.62v1Z" id="el_vJ13JuP_Xh"/>
    <path d="M250.29,387.9v-1a1.48,1.48,0,0,1,1.23-1.64l14.66-.08a1.47,1.47,0,0,1,1.25,1.62v1Z" id="el_IbkXBe4ukP"/>
  </g></g>
  <g id="el_VD3rDARIkJ_Wx6kiKcJ3" data-animator-group="true" data-animator-type="1"><g id="el_VD3rDARIkJ">
    <path d="M383.11,448.87a20.67,20.67,0,1,0-.15-29.23,20.67,20.67,0,0,0,.15,29.23h0Zm25.24-4.1h0a15.06,15.06,0,1,1-.11-21.29A15.06,15.06,0,0,1,408.35,444.77Z" id="el_qoUmUsCPEdL"/>
    <circle cx="397.65" cy="434.18" r="17.08" id="el_i23lSlcZ0K9"/>
    <circle cx="397.65" cy="434.18" r="15.05" id="el_R__JyM_zAE-"/>
    <circle cx="396.95" cy="434.54" r="5.24" id="el_D19LqUjFqm8"/>
    <path d="M396,450.69l-1-11.39-8.65,7.47-1.53-1.51,7.38-8.73-11.4-.84v-2.15l11.39-1-7.47-8.65,1.51-1.53,8.73,7.38,0.84-11.4h2.15l1,11.39,8.65-7.47,1.53,1.51-7.38,8.73,11.4,0.84v2.15l-11.39,1,7.47,8.65-1.51,1.53-8.73-7.38-0.84,11.4H396Zm0-13.69h2l1.43-1.45v-2L398,432.07h-2l-1.43,1.45v2Z" id="el_jxcGqA23kwn"/>
  </g></g>
  <g id="el_aVGeZxqBcLS_rSQ-lD4Y1" data-animator-group="true" data-animator-type="1"><g id="el_aVGeZxqBcLS">
    <path d="M198.93,448.87a20.67,20.67,0,1,0-.15-29.23,20.67,20.67,0,0,0,.15,29.23h0Zm25.24-4.1h0a15.06,15.06,0,1,1-.11-21.29A15.06,15.06,0,0,1,224.18,444.77Z" id="el_B0MmXpsrLyd"/>
    <circle cx="213.48" cy="434.18" r="17.08" id="el_DCRY_g1VSHX"/>
    <circle cx="213.48" cy="434.18" r="15.05" id="el_RKKdt55DCgU"/>
    <circle cx="212.77" cy="434.54" r="5.24" id="el_nNFU5vRp30X"/>
    <path d="M211.78,450.69l-1-11.39-8.65,7.47-1.53-1.51,7.38-8.73-11.4-.84v-2.15l11.39-1-7.47-8.65,1.51-1.53,8.73,7.38,0.84-11.4h2.15l1,11.39,8.65-7.47,1.53,1.51-7.38,8.73,11.4,0.84v2.15l-11.39,1,7.47,8.65-1.51,1.53-8.73-7.38-0.84,11.4h-2.15Zm0-13.69h2l1.43-1.45v-2l-1.45-1.43h-2l-1.43,1.45v2Z" id="el_0XYU9IchpsO"/>
  </g></g>
<script>(function(){var a=document.querySelector('#el_-YGwM0asK'),b=a.querySelectorAll('style'),c=function(d){b.forEach(function(f){var g=f.textContent;g&amp;&amp;(f.textContent=g.replace(/transform-box:[^;\r\n]*/gi,'transform-box: '+d))})};c('initial'),window.requestAnimationFrame(function(){return c('fill-box')})})();</script></svg>